G75*
%MOIN*%
%OFA0B0*%
%FSLAX25Y25*%
%IPPOS*%
%LPD*%
%AMOC8*
5,1,8,0,0,1.08239X$1,22.5*
%
%ADD10C,0.00300*%
%ADD11C,0.00500*%
%ADD12C,0.00200*%
%ADD13C,0.00400*%
D10*
X0052275Y0049147D02*
X0055177Y0049147D01*
X0055177Y0050598D01*
X0054694Y0051082D01*
X0053726Y0051082D01*
X0053242Y0050598D01*
X0053242Y0049147D01*
X0053242Y0050114D02*
X0052275Y0051082D01*
X0052275Y0052093D02*
X0052275Y0054028D01*
X0052275Y0053061D02*
X0055177Y0053061D01*
X0054210Y0052093D01*
X0053726Y0055040D02*
X0053726Y0056975D01*
X0052275Y0056491D02*
X0055177Y0056491D01*
X0053726Y0055040D01*
X0039325Y0058488D02*
X0038841Y0058004D01*
X0037873Y0058004D01*
X0037390Y0058488D01*
X0037390Y0060906D01*
X0036378Y0060906D02*
X0036378Y0059455D01*
X0035411Y0059939D01*
X0034927Y0059939D01*
X0034443Y0059455D01*
X0034443Y0058488D01*
X0034927Y0058004D01*
X0035894Y0058004D01*
X0036378Y0058488D01*
X0035009Y0055599D02*
X0034042Y0055599D01*
X0033558Y0055115D01*
X0033558Y0053180D01*
X0034042Y0052697D01*
X0035009Y0052697D01*
X0035493Y0053180D01*
X0035493Y0055115D01*
X0035009Y0055599D01*
X0032547Y0055115D02*
X0032063Y0055599D01*
X0031095Y0055599D01*
X0030612Y0055115D01*
X0030612Y0054632D01*
X0031095Y0054148D01*
X0030612Y0053664D01*
X0030612Y0053180D01*
X0031095Y0052697D01*
X0032063Y0052697D01*
X0032547Y0053180D01*
X0033558Y0052697D02*
X0034526Y0053664D01*
X0031579Y0054148D02*
X0031095Y0054148D01*
X0029552Y0058522D02*
X0029552Y0059973D01*
X0029069Y0060457D01*
X0028101Y0060457D01*
X0027617Y0059973D01*
X0027617Y0058522D01*
X0026650Y0058522D02*
X0029552Y0058522D01*
X0027617Y0059489D02*
X0026650Y0060457D01*
X0026650Y0061468D02*
X0026650Y0063403D01*
X0026650Y0062436D02*
X0029552Y0062436D01*
X0028585Y0061468D01*
X0028585Y0064415D02*
X0028101Y0064899D01*
X0028101Y0066350D01*
X0027134Y0066350D02*
X0029069Y0066350D01*
X0029552Y0065866D01*
X0029552Y0064899D01*
X0029069Y0064415D01*
X0028585Y0064415D01*
X0027134Y0064415D02*
X0026650Y0064899D01*
X0026650Y0065866D01*
X0027134Y0066350D01*
X0020815Y0068305D02*
X0020331Y0067822D01*
X0019363Y0067822D01*
X0018880Y0068305D01*
X0017868Y0067822D02*
X0015933Y0067822D01*
X0016901Y0067822D02*
X0016901Y0070724D01*
X0017868Y0069757D01*
X0018880Y0070240D02*
X0019363Y0070724D01*
X0020331Y0070724D01*
X0020815Y0070240D01*
X0020815Y0068305D01*
X0014922Y0068305D02*
X0014438Y0067822D01*
X0013470Y0067822D01*
X0012987Y0068305D01*
X0012987Y0068789D01*
X0013470Y0069273D01*
X0013954Y0069273D01*
X0013470Y0069273D02*
X0012987Y0069757D01*
X0012987Y0070240D01*
X0013470Y0070724D01*
X0014438Y0070724D01*
X0014922Y0070240D01*
X0013994Y0061260D02*
X0013510Y0061260D01*
X0013026Y0060776D01*
X0013026Y0059809D01*
X0013510Y0059325D01*
X0013994Y0059325D01*
X0014477Y0059809D01*
X0014477Y0060776D01*
X0013994Y0061260D01*
X0013026Y0060776D02*
X0012542Y0061260D01*
X0012059Y0061260D01*
X0011575Y0060776D01*
X0011575Y0059809D01*
X0012059Y0059325D01*
X0012542Y0059325D01*
X0013026Y0059809D01*
X0011575Y0058314D02*
X0011575Y0056379D01*
X0011575Y0057346D02*
X0014477Y0057346D01*
X0013510Y0056379D01*
X0013994Y0055367D02*
X0013026Y0055367D01*
X0012542Y0054883D01*
X0012542Y0053432D01*
X0011575Y0053432D02*
X0014477Y0053432D01*
X0014477Y0054883D01*
X0013994Y0055367D01*
X0012542Y0054400D02*
X0011575Y0055367D01*
X0034443Y0060906D02*
X0036378Y0060906D01*
X0039325Y0060906D02*
X0039325Y0058488D01*
X0042140Y0077272D02*
X0044609Y0077272D01*
X0042140Y0079741D01*
X0042140Y0080358D01*
X0042757Y0080975D01*
X0043992Y0080975D01*
X0044609Y0080358D01*
X0047057Y0080975D02*
X0047057Y0077272D01*
X0045823Y0077272D02*
X0048292Y0077272D01*
X0049506Y0077889D02*
X0050123Y0077272D01*
X0051358Y0077272D01*
X0051975Y0077889D01*
X0051975Y0080358D01*
X0051358Y0080975D01*
X0050123Y0080975D01*
X0049506Y0080358D01*
X0048292Y0079741D02*
X0047057Y0080975D01*
X0045620Y0088103D02*
X0043202Y0088103D01*
X0042718Y0088587D01*
X0042718Y0089555D01*
X0043202Y0090038D01*
X0045620Y0090038D01*
X0044169Y0091050D02*
X0044169Y0092985D01*
X0042718Y0092501D02*
X0045620Y0092501D01*
X0044169Y0091050D01*
X0041884Y0098322D02*
X0040917Y0098322D01*
X0040433Y0098805D01*
X0040433Y0100740D01*
X0040917Y0101224D01*
X0041884Y0101224D01*
X0042368Y0100740D01*
X0042368Y0098805D01*
X0041884Y0098322D01*
X0041401Y0099289D02*
X0040433Y0098322D01*
X0039422Y0098322D02*
X0037487Y0100257D01*
X0037487Y0100740D01*
X0037970Y0101224D01*
X0038938Y0101224D01*
X0039422Y0100740D01*
X0039422Y0098322D02*
X0037487Y0098322D01*
X0029728Y0094607D02*
X0029728Y0092138D01*
X0029728Y0094607D02*
X0029111Y0094607D01*
X0026642Y0092138D01*
X0026025Y0092138D01*
X0026025Y0090924D02*
X0026025Y0088455D01*
X0026025Y0087241D02*
X0027259Y0086006D01*
X0027259Y0086623D02*
X0027259Y0084772D01*
X0026025Y0084772D02*
X0029728Y0084772D01*
X0029728Y0086623D01*
X0029111Y0087241D01*
X0027877Y0087241D01*
X0027259Y0086623D01*
X0028494Y0088455D02*
X0029728Y0089689D01*
X0026025Y0089689D01*
X0013852Y0092182D02*
X0013852Y0093633D01*
X0013369Y0094117D01*
X0012401Y0094117D01*
X0011917Y0093633D01*
X0011917Y0092182D01*
X0010950Y0092182D02*
X0013852Y0092182D01*
X0011917Y0093150D02*
X0010950Y0094117D01*
X0010950Y0095129D02*
X0010950Y0097064D01*
X0010950Y0096096D02*
X0013852Y0096096D01*
X0012885Y0095129D01*
X0012401Y0098075D02*
X0011434Y0098075D01*
X0010950Y0098559D01*
X0010950Y0099526D01*
X0011434Y0100010D01*
X0011917Y0100010D01*
X0012401Y0099526D01*
X0012401Y0098075D01*
X0013369Y0099043D01*
X0013852Y0100010D01*
X0053969Y0102130D02*
X0053969Y0104065D01*
X0054452Y0104549D01*
X0055420Y0104549D01*
X0055903Y0104065D01*
X0055903Y0103582D01*
X0055420Y0103098D01*
X0053969Y0103098D01*
X0053969Y0102130D02*
X0054452Y0101647D01*
X0055420Y0101647D01*
X0055903Y0102130D01*
X0056915Y0101647D02*
X0057883Y0102614D01*
X0057399Y0102614D02*
X0058850Y0102614D01*
X0058850Y0101647D02*
X0058850Y0104549D01*
X0057399Y0104549D01*
X0056915Y0104065D01*
X0056915Y0103098D01*
X0057399Y0102614D01*
X0062140Y0116647D02*
X0064609Y0116647D01*
X0062140Y0119116D01*
X0062140Y0119733D01*
X0062757Y0120350D01*
X0063992Y0120350D01*
X0064609Y0119733D01*
X0067057Y0120350D02*
X0067057Y0116647D01*
X0065823Y0116647D02*
X0068292Y0116647D01*
X0069506Y0116647D02*
X0070741Y0117881D01*
X0070123Y0117881D02*
X0071975Y0117881D01*
X0071975Y0116647D02*
X0071975Y0120350D01*
X0070123Y0120350D01*
X0069506Y0119733D01*
X0069506Y0118498D01*
X0070123Y0117881D01*
X0068292Y0119116D02*
X0067057Y0120350D01*
X0075064Y0120108D02*
X0075064Y0119491D01*
X0075682Y0118873D01*
X0075064Y0118256D01*
X0075064Y0117639D01*
X0075682Y0117022D01*
X0076916Y0117022D01*
X0077533Y0117639D01*
X0078748Y0117022D02*
X0081216Y0117022D01*
X0082431Y0117022D02*
X0083665Y0118256D01*
X0083048Y0118256D02*
X0084899Y0118256D01*
X0084899Y0117022D02*
X0084899Y0120725D01*
X0083048Y0120725D01*
X0082431Y0120108D01*
X0082431Y0118873D01*
X0083048Y0118256D01*
X0081216Y0119491D02*
X0079982Y0120725D01*
X0079982Y0117022D01*
X0077533Y0120108D02*
X0076916Y0120725D01*
X0075682Y0120725D01*
X0075064Y0120108D01*
X0075682Y0118873D02*
X0076299Y0118873D01*
X0105219Y0105397D02*
X0107153Y0105397D01*
X0106186Y0105397D02*
X0106186Y0108299D01*
X0107153Y0107332D01*
X0108165Y0107815D02*
X0108649Y0108299D01*
X0109616Y0108299D01*
X0110100Y0107815D01*
X0110100Y0105880D01*
X0109616Y0105397D01*
X0108649Y0105397D01*
X0108165Y0105880D01*
X0108649Y0102049D02*
X0108165Y0101565D01*
X0108649Y0102049D02*
X0109616Y0102049D01*
X0110100Y0101565D01*
X0110100Y0099630D01*
X0109616Y0099147D01*
X0108649Y0099147D01*
X0108165Y0099630D01*
X0107153Y0099147D02*
X0105219Y0101082D01*
X0105219Y0101565D01*
X0105702Y0102049D01*
X0106670Y0102049D01*
X0107153Y0101565D01*
X0107153Y0099147D02*
X0105219Y0099147D01*
X0107642Y0092307D02*
X0107025Y0091690D01*
X0107025Y0090456D01*
X0107642Y0089839D01*
X0108877Y0089839D02*
X0109494Y0091073D01*
X0109494Y0091690D01*
X0108877Y0092307D01*
X0107642Y0092307D01*
X0108877Y0089839D02*
X0110728Y0089839D01*
X0110728Y0092307D01*
X0110111Y0088624D02*
X0108877Y0088624D01*
X0108259Y0088007D01*
X0108259Y0086155D01*
X0107025Y0086155D02*
X0110728Y0086155D01*
X0110728Y0088007D01*
X0110111Y0088624D01*
X0108259Y0087390D02*
X0107025Y0088624D01*
X0097119Y0077510D02*
X0095184Y0077510D01*
X0094700Y0077026D01*
X0094700Y0076059D01*
X0095184Y0075575D01*
X0097119Y0077510D01*
X0097602Y0077026D01*
X0097602Y0076059D01*
X0097119Y0075575D01*
X0095184Y0075575D01*
X0094700Y0074564D02*
X0094700Y0072629D01*
X0094700Y0073596D02*
X0097602Y0073596D01*
X0096635Y0072629D01*
X0097119Y0071617D02*
X0097602Y0071133D01*
X0097602Y0070166D01*
X0097119Y0069682D01*
X0095184Y0069682D01*
X0094700Y0070166D01*
X0094700Y0071133D01*
X0095184Y0071617D01*
X0110950Y0071200D02*
X0110950Y0073135D01*
X0110950Y0072168D02*
X0113852Y0072168D01*
X0112885Y0071200D01*
X0110950Y0070189D02*
X0110950Y0068254D01*
X0110950Y0069221D02*
X0113852Y0069221D01*
X0112885Y0068254D01*
X0113369Y0067242D02*
X0113852Y0066758D01*
X0113852Y0065791D01*
X0113369Y0065307D01*
X0111434Y0065307D01*
X0110950Y0065791D01*
X0110950Y0066758D01*
X0111434Y0067242D01*
X0118450Y0080129D02*
X0121352Y0080129D01*
X0121352Y0081580D01*
X0120869Y0082064D01*
X0119901Y0082064D01*
X0119417Y0081580D01*
X0119417Y0080129D01*
X0119417Y0081096D02*
X0118450Y0082064D01*
X0119901Y0083075D02*
X0119901Y0085010D01*
X0118450Y0084526D02*
X0121352Y0084526D01*
X0119901Y0083075D01*
X0124075Y0078901D02*
X0126977Y0078901D01*
X0125526Y0077450D01*
X0125526Y0079385D01*
X0124559Y0076439D02*
X0124075Y0075955D01*
X0124075Y0074987D01*
X0124559Y0074504D01*
X0126494Y0074504D01*
X0126977Y0074987D01*
X0126977Y0075955D01*
X0126494Y0076439D01*
X0119477Y0046260D02*
X0118994Y0045293D01*
X0118026Y0044325D01*
X0118026Y0045776D01*
X0117542Y0046260D01*
X0117059Y0046260D01*
X0116575Y0045776D01*
X0116575Y0044809D01*
X0117059Y0044325D01*
X0118026Y0044325D01*
X0117059Y0043314D02*
X0116575Y0042830D01*
X0116575Y0041862D01*
X0117059Y0041379D01*
X0118994Y0041379D01*
X0119477Y0041862D01*
X0119477Y0042830D01*
X0118994Y0043314D01*
X0106352Y0042793D02*
X0103450Y0042793D01*
X0103450Y0043760D02*
X0103450Y0041825D01*
X0103450Y0040814D02*
X0103450Y0038879D01*
X0106352Y0038879D01*
X0105385Y0041825D02*
X0106352Y0042793D01*
X0071440Y0039474D02*
X0071440Y0036572D01*
X0071440Y0037539D02*
X0069988Y0037539D01*
X0069505Y0038023D01*
X0069505Y0038990D01*
X0069988Y0039474D01*
X0071440Y0039474D01*
X0070472Y0037539D02*
X0069505Y0036572D01*
X0068493Y0036572D02*
X0066558Y0036572D01*
X0067526Y0036572D02*
X0067526Y0039474D01*
X0068493Y0038507D01*
X0065547Y0038507D02*
X0064579Y0039474D01*
X0064579Y0036572D01*
X0063612Y0036572D02*
X0065547Y0036572D01*
D11*
X0029400Y0032197D02*
X0029400Y0050797D01*
X0043600Y0050797D01*
X0043600Y0032197D01*
X0029400Y0032197D01*
X0032061Y0062808D02*
X0038439Y0062808D01*
X0038400Y0062894D02*
X0038400Y0063485D01*
X0032100Y0063485D02*
X0032100Y0062894D01*
X0032100Y0074509D02*
X0032100Y0075296D01*
X0032061Y0075186D02*
X0038439Y0075186D01*
X0038400Y0075099D02*
X0038400Y0074509D01*
X0038439Y0085308D02*
X0032061Y0085308D01*
X0032100Y0085394D02*
X0032100Y0085985D01*
X0038400Y0085985D02*
X0038400Y0085394D01*
X0038400Y0097009D02*
X0038400Y0097599D01*
X0038439Y0097686D02*
X0032061Y0097686D01*
X0032100Y0097796D02*
X0032100Y0097009D01*
X0029400Y0102197D02*
X0029400Y0120797D01*
X0043600Y0120797D01*
X0043600Y0102197D01*
X0029400Y0102197D01*
D12*
X0040000Y0118597D02*
X0040002Y0118672D01*
X0040008Y0118746D01*
X0040018Y0118820D01*
X0040032Y0118893D01*
X0040049Y0118965D01*
X0040071Y0119037D01*
X0040096Y0119107D01*
X0040125Y0119175D01*
X0040158Y0119243D01*
X0040194Y0119308D01*
X0040233Y0119371D01*
X0040276Y0119432D01*
X0040322Y0119491D01*
X0040371Y0119547D01*
X0040423Y0119600D01*
X0040478Y0119651D01*
X0040535Y0119698D01*
X0040595Y0119743D01*
X0040657Y0119784D01*
X0040722Y0119822D01*
X0040788Y0119856D01*
X0040856Y0119887D01*
X0040925Y0119914D01*
X0040996Y0119937D01*
X0041068Y0119957D01*
X0041141Y0119973D01*
X0041214Y0119985D01*
X0041288Y0119993D01*
X0041363Y0119997D01*
X0041437Y0119997D01*
X0041512Y0119993D01*
X0041586Y0119985D01*
X0041659Y0119973D01*
X0041732Y0119957D01*
X0041804Y0119937D01*
X0041875Y0119914D01*
X0041944Y0119887D01*
X0042012Y0119856D01*
X0042078Y0119822D01*
X0042143Y0119784D01*
X0042205Y0119743D01*
X0042265Y0119698D01*
X0042322Y0119651D01*
X0042377Y0119600D01*
X0042429Y0119547D01*
X0042478Y0119491D01*
X0042524Y0119432D01*
X0042567Y0119371D01*
X0042606Y0119308D01*
X0042642Y0119243D01*
X0042675Y0119175D01*
X0042704Y0119107D01*
X0042729Y0119037D01*
X0042751Y0118965D01*
X0042768Y0118893D01*
X0042782Y0118820D01*
X0042792Y0118746D01*
X0042798Y0118672D01*
X0042800Y0118597D01*
X0042798Y0118522D01*
X0042792Y0118448D01*
X0042782Y0118374D01*
X0042768Y0118301D01*
X0042751Y0118229D01*
X0042729Y0118157D01*
X0042704Y0118087D01*
X0042675Y0118019D01*
X0042642Y0117951D01*
X0042606Y0117886D01*
X0042567Y0117823D01*
X0042524Y0117762D01*
X0042478Y0117703D01*
X0042429Y0117647D01*
X0042377Y0117594D01*
X0042322Y0117543D01*
X0042265Y0117496D01*
X0042205Y0117451D01*
X0042143Y0117410D01*
X0042078Y0117372D01*
X0042012Y0117338D01*
X0041944Y0117307D01*
X0041875Y0117280D01*
X0041804Y0117257D01*
X0041732Y0117237D01*
X0041659Y0117221D01*
X0041586Y0117209D01*
X0041512Y0117201D01*
X0041437Y0117197D01*
X0041363Y0117197D01*
X0041288Y0117201D01*
X0041214Y0117209D01*
X0041141Y0117221D01*
X0041068Y0117237D01*
X0040996Y0117257D01*
X0040925Y0117280D01*
X0040856Y0117307D01*
X0040788Y0117338D01*
X0040722Y0117372D01*
X0040657Y0117410D01*
X0040595Y0117451D01*
X0040535Y0117496D01*
X0040478Y0117543D01*
X0040423Y0117594D01*
X0040371Y0117647D01*
X0040322Y0117703D01*
X0040276Y0117762D01*
X0040233Y0117823D01*
X0040194Y0117886D01*
X0040158Y0117951D01*
X0040125Y0118019D01*
X0040096Y0118087D01*
X0040071Y0118157D01*
X0040049Y0118229D01*
X0040032Y0118301D01*
X0040018Y0118374D01*
X0040008Y0118448D01*
X0040002Y0118522D01*
X0040000Y0118597D01*
X0027908Y0079674D02*
X0027174Y0079674D01*
X0026807Y0079307D01*
X0026807Y0078573D02*
X0027541Y0078573D01*
X0026807Y0078573D02*
X0026807Y0077839D01*
X0027174Y0077472D01*
X0027908Y0077472D01*
X0028275Y0077839D01*
X0028275Y0079307D01*
X0027908Y0079674D01*
X0026065Y0079674D02*
X0024597Y0077472D01*
X0024597Y0079674D01*
X0023855Y0079674D02*
X0022754Y0079674D01*
X0022387Y0079307D01*
X0022387Y0077839D01*
X0022754Y0077472D01*
X0023855Y0077472D01*
X0023855Y0079674D01*
X0026065Y0079674D02*
X0026065Y0077472D01*
X0040000Y0048597D02*
X0040002Y0048672D01*
X0040008Y0048746D01*
X0040018Y0048820D01*
X0040032Y0048893D01*
X0040049Y0048965D01*
X0040071Y0049037D01*
X0040096Y0049107D01*
X0040125Y0049175D01*
X0040158Y0049243D01*
X0040194Y0049308D01*
X0040233Y0049371D01*
X0040276Y0049432D01*
X0040322Y0049491D01*
X0040371Y0049547D01*
X0040423Y0049600D01*
X0040478Y0049651D01*
X0040535Y0049698D01*
X0040595Y0049743D01*
X0040657Y0049784D01*
X0040722Y0049822D01*
X0040788Y0049856D01*
X0040856Y0049887D01*
X0040925Y0049914D01*
X0040996Y0049937D01*
X0041068Y0049957D01*
X0041141Y0049973D01*
X0041214Y0049985D01*
X0041288Y0049993D01*
X0041363Y0049997D01*
X0041437Y0049997D01*
X0041512Y0049993D01*
X0041586Y0049985D01*
X0041659Y0049973D01*
X0041732Y0049957D01*
X0041804Y0049937D01*
X0041875Y0049914D01*
X0041944Y0049887D01*
X0042012Y0049856D01*
X0042078Y0049822D01*
X0042143Y0049784D01*
X0042205Y0049743D01*
X0042265Y0049698D01*
X0042322Y0049651D01*
X0042377Y0049600D01*
X0042429Y0049547D01*
X0042478Y0049491D01*
X0042524Y0049432D01*
X0042567Y0049371D01*
X0042606Y0049308D01*
X0042642Y0049243D01*
X0042675Y0049175D01*
X0042704Y0049107D01*
X0042729Y0049037D01*
X0042751Y0048965D01*
X0042768Y0048893D01*
X0042782Y0048820D01*
X0042792Y0048746D01*
X0042798Y0048672D01*
X0042800Y0048597D01*
X0042798Y0048522D01*
X0042792Y0048448D01*
X0042782Y0048374D01*
X0042768Y0048301D01*
X0042751Y0048229D01*
X0042729Y0048157D01*
X0042704Y0048087D01*
X0042675Y0048019D01*
X0042642Y0047951D01*
X0042606Y0047886D01*
X0042567Y0047823D01*
X0042524Y0047762D01*
X0042478Y0047703D01*
X0042429Y0047647D01*
X0042377Y0047594D01*
X0042322Y0047543D01*
X0042265Y0047496D01*
X0042205Y0047451D01*
X0042143Y0047410D01*
X0042078Y0047372D01*
X0042012Y0047338D01*
X0041944Y0047307D01*
X0041875Y0047280D01*
X0041804Y0047257D01*
X0041732Y0047237D01*
X0041659Y0047221D01*
X0041586Y0047209D01*
X0041512Y0047201D01*
X0041437Y0047197D01*
X0041363Y0047197D01*
X0041288Y0047201D01*
X0041214Y0047209D01*
X0041141Y0047221D01*
X0041068Y0047237D01*
X0040996Y0047257D01*
X0040925Y0047280D01*
X0040856Y0047307D01*
X0040788Y0047338D01*
X0040722Y0047372D01*
X0040657Y0047410D01*
X0040595Y0047451D01*
X0040535Y0047496D01*
X0040478Y0047543D01*
X0040423Y0047594D01*
X0040371Y0047647D01*
X0040322Y0047703D01*
X0040276Y0047762D01*
X0040233Y0047823D01*
X0040194Y0047886D01*
X0040158Y0047951D01*
X0040125Y0048019D01*
X0040096Y0048087D01*
X0040071Y0048157D01*
X0040049Y0048229D01*
X0040032Y0048301D01*
X0040018Y0048374D01*
X0040008Y0048448D01*
X0040002Y0048522D01*
X0040000Y0048597D01*
D13*
X0033300Y0048599D02*
X0032699Y0047998D01*
X0031498Y0047998D01*
X0030898Y0047398D01*
X0030898Y0046797D01*
X0031498Y0046197D01*
X0032699Y0046197D01*
X0033300Y0046797D01*
X0033300Y0047398D01*
X0032699Y0047998D01*
X0033300Y0048599D02*
X0033300Y0049199D01*
X0032699Y0049800D01*
X0031498Y0049800D01*
X0030898Y0049199D01*
X0030898Y0048599D01*
X0031498Y0047998D01*
X0031498Y0116197D02*
X0032699Y0116197D01*
X0033300Y0116797D01*
X0033300Y0117398D01*
X0032699Y0117998D01*
X0031498Y0117998D01*
X0030898Y0117398D01*
X0030898Y0116797D01*
X0031498Y0116197D01*
X0031498Y0117998D02*
X0030898Y0118599D01*
X0030898Y0119199D01*
X0031498Y0119800D01*
X0032699Y0119800D01*
X0033300Y0119199D01*
X0033300Y0118599D01*
X0032699Y0117998D01*
M02*
