G75*
%MOIN*%
%OFA0B0*%
%FSLAX25Y25*%
%IPPOS*%
%LPD*%
%AMOC8*
5,1,8,0,0,1.08239X$1,22.5*
%
%ADD10R,0.04331X0.03937*%
%ADD11R,0.03937X0.04331*%
%ADD12R,0.05000X0.02200*%
%ADD13R,0.02200X0.05000*%
%ADD14R,0.10000X0.05000*%
%ADD15OC8,0.06000*%
%ADD16R,0.09449X0.03150*%
%ADD17R,0.09449X0.02362*%
%ADD18R,0.05512X0.03937*%
%ADD19R,0.03937X0.05512*%
%ADD20R,0.07098X0.06299*%
%ADD21C,0.05150*%
%ADD22R,0.01378X0.01969*%
%ADD23R,0.06299X0.07087*%
%ADD24R,0.07087X0.06299*%
%ADD25C,0.05000*%
%ADD26C,0.01000*%
%ADD27C,0.03569*%
%ADD28C,0.03175*%
%ADD29C,0.01600*%
%ADD30C,0.01200*%
%ADD31C,0.03962*%
D10*
X0039404Y0036497D03*
X0046096Y0036497D03*
X0055250Y0037525D03*
X0055250Y0044218D03*
X0036096Y0092122D03*
X0029404Y0092122D03*
X0049404Y0093372D03*
X0056096Y0093372D03*
X0081500Y0093150D03*
X0081500Y0099843D03*
X0100250Y0096900D03*
X0105250Y0096900D03*
X0108154Y0091497D03*
X0114846Y0091497D03*
X0105250Y0103593D03*
X0100250Y0103593D03*
X0126500Y0061093D03*
X0126500Y0054400D03*
D11*
X0076500Y0093150D03*
X0076500Y0099843D03*
X0057346Y0100247D03*
X0050654Y0100247D03*
X0051500Y0074218D03*
X0046500Y0074218D03*
X0046500Y0067525D03*
X0051500Y0067525D03*
X0056500Y0067525D03*
X0056500Y0074218D03*
X0065654Y0032747D03*
X0072346Y0032747D03*
D12*
X0067100Y0055473D03*
X0067100Y0058623D03*
X0067100Y0061772D03*
X0067100Y0064922D03*
X0067100Y0068072D03*
X0067100Y0071221D03*
X0067100Y0074371D03*
X0067100Y0077520D03*
X0100900Y0077520D03*
X0100900Y0074371D03*
X0100900Y0071221D03*
X0100900Y0068072D03*
X0100900Y0064922D03*
X0100900Y0061772D03*
X0100900Y0058623D03*
X0100900Y0055473D03*
D13*
X0095024Y0049597D03*
X0091874Y0049597D03*
X0088724Y0049597D03*
X0085575Y0049597D03*
X0082425Y0049597D03*
X0079276Y0049597D03*
X0076126Y0049597D03*
X0072976Y0049597D03*
X0072976Y0083397D03*
X0076126Y0083397D03*
X0079276Y0083397D03*
X0082425Y0083397D03*
X0085575Y0083397D03*
X0088724Y0083397D03*
X0091874Y0083397D03*
X0095024Y0083397D03*
D14*
X0139625Y0081497D03*
X0139625Y0091497D03*
X0139625Y0071497D03*
X0139625Y0061497D03*
X0139625Y0051497D03*
D15*
X0019000Y0041497D03*
X0019000Y0111497D03*
D16*
X0054000Y0061059D03*
X0054000Y0053185D03*
D17*
X0054000Y0057122D03*
D18*
X0055831Y0080257D03*
X0055831Y0087737D03*
X0062169Y0095247D03*
X0070831Y0098987D03*
X0070831Y0091507D03*
X0047169Y0083997D03*
X0128419Y0104007D03*
X0128419Y0111487D03*
X0137081Y0107747D03*
D19*
X0088990Y0042077D03*
X0081510Y0042077D03*
X0085250Y0033416D03*
D20*
X0121500Y0102773D03*
X0121500Y0113970D03*
D21*
X0119000Y0073997D03*
X0119000Y0063997D03*
X0119000Y0053997D03*
D22*
X0091559Y0091113D03*
X0089000Y0091113D03*
X0086441Y0091113D03*
X0086441Y0099381D03*
X0091559Y0099381D03*
D23*
X0047012Y0042747D03*
X0035988Y0042747D03*
D24*
X0044000Y0098485D03*
X0044000Y0109509D03*
D25*
X0060875Y0081497D03*
D26*
X0013500Y0051497D02*
X0013500Y0032247D01*
X0025250Y0032247D01*
X0025250Y0048997D01*
X0025250Y0032747D01*
X0014000Y0032747D01*
X0014000Y0051497D01*
X0022750Y0051497D01*
X0025250Y0048997D01*
X0022750Y0051497D01*
X0013500Y0051497D01*
X0013500Y0050712D02*
X0023534Y0050712D01*
X0024533Y0049714D02*
X0013500Y0049714D01*
X0013500Y0048715D02*
X0025250Y0048715D01*
X0025250Y0047717D02*
X0013500Y0047717D01*
X0013500Y0046718D02*
X0025250Y0046718D01*
X0025250Y0045720D02*
X0013500Y0045720D01*
X0013500Y0044721D02*
X0025250Y0044721D01*
X0025250Y0043723D02*
X0013500Y0043723D01*
X0013500Y0042724D02*
X0025250Y0042724D01*
X0025250Y0041726D02*
X0013500Y0041726D01*
X0013500Y0040727D02*
X0025250Y0040727D01*
X0025250Y0039729D02*
X0013500Y0039729D01*
X0013500Y0038730D02*
X0025250Y0038730D01*
X0025250Y0037732D02*
X0013500Y0037732D01*
X0013500Y0036733D02*
X0025250Y0036733D01*
X0025250Y0035735D02*
X0013500Y0035735D01*
X0013500Y0034736D02*
X0025250Y0034736D01*
X0025250Y0033738D02*
X0013500Y0033738D01*
X0013500Y0032739D02*
X0025250Y0032739D01*
X0027050Y0032739D02*
X0041500Y0032739D01*
X0041500Y0032247D02*
X0027050Y0032247D01*
X0027050Y0049742D01*
X0025996Y0050797D01*
X0023496Y0053297D01*
X0013500Y0053297D01*
X0013500Y0099697D01*
X0023496Y0099697D01*
X0025996Y0102197D01*
X0027050Y0103251D01*
X0027050Y0108997D01*
X0044000Y0108997D01*
X0044000Y0106497D01*
X0040438Y0102935D01*
X0039918Y0102935D01*
X0039157Y0102173D01*
X0039157Y0101653D01*
X0027675Y0090172D01*
X0026379Y0090172D01*
X0025325Y0089117D01*
X0024075Y0087867D01*
X0024075Y0065126D01*
X0025129Y0064072D01*
X0026113Y0063089D01*
X0026113Y0062172D01*
X0026552Y0061111D01*
X0027364Y0060299D01*
X0027934Y0060063D01*
X0041500Y0046497D01*
X0039625Y0048372D01*
X0039000Y0048372D01*
X0037125Y0050247D01*
X0037125Y0050872D01*
X0028375Y0059622D01*
X0028298Y0059699D02*
X0013500Y0059699D01*
X0013500Y0058701D02*
X0029296Y0058701D01*
X0030295Y0057702D02*
X0013500Y0057702D01*
X0013500Y0056704D02*
X0031293Y0056704D01*
X0032292Y0055705D02*
X0013500Y0055705D01*
X0013500Y0054707D02*
X0033290Y0054707D01*
X0034289Y0053708D02*
X0013500Y0053708D01*
X0013500Y0060698D02*
X0026966Y0060698D01*
X0026310Y0061696D02*
X0013500Y0061696D01*
X0013500Y0062695D02*
X0026113Y0062695D01*
X0025508Y0063693D02*
X0013500Y0063693D01*
X0013500Y0064692D02*
X0024509Y0064692D01*
X0024075Y0065690D02*
X0013500Y0065690D01*
X0013500Y0066689D02*
X0024075Y0066689D01*
X0024075Y0067687D02*
X0013500Y0067687D01*
X0013500Y0068686D02*
X0024075Y0068686D01*
X0024075Y0069684D02*
X0013500Y0069684D01*
X0013500Y0070683D02*
X0024075Y0070683D01*
X0024075Y0071681D02*
X0013500Y0071681D01*
X0013500Y0072680D02*
X0024075Y0072680D01*
X0024075Y0073678D02*
X0013500Y0073678D01*
X0013500Y0074677D02*
X0024075Y0074677D01*
X0024075Y0075675D02*
X0013500Y0075675D01*
X0013500Y0076674D02*
X0024075Y0076674D01*
X0024075Y0077672D02*
X0013500Y0077672D01*
X0013500Y0078671D02*
X0024075Y0078671D01*
X0024075Y0079669D02*
X0013500Y0079669D01*
X0013500Y0080668D02*
X0024075Y0080668D01*
X0024075Y0081666D02*
X0013500Y0081666D01*
X0013500Y0082665D02*
X0024075Y0082665D01*
X0024075Y0083663D02*
X0013500Y0083663D01*
X0013500Y0084662D02*
X0024075Y0084662D01*
X0024075Y0085660D02*
X0013500Y0085660D01*
X0013500Y0086659D02*
X0024075Y0086659D01*
X0024075Y0087657D02*
X0013500Y0087657D01*
X0013500Y0088656D02*
X0024864Y0088656D01*
X0025862Y0089654D02*
X0013500Y0089654D01*
X0013500Y0090653D02*
X0028156Y0090653D01*
X0029155Y0091651D02*
X0013500Y0091651D01*
X0013500Y0092650D02*
X0030153Y0092650D01*
X0031152Y0093648D02*
X0013500Y0093648D01*
X0013500Y0094647D02*
X0032150Y0094647D01*
X0033149Y0095646D02*
X0013500Y0095646D01*
X0013500Y0096644D02*
X0034147Y0096644D01*
X0035146Y0097643D02*
X0013500Y0097643D01*
X0013500Y0098641D02*
X0036144Y0098641D01*
X0037143Y0099640D02*
X0013500Y0099640D01*
X0013500Y0101497D02*
X0013500Y0120707D01*
X0025250Y0120707D01*
X0025250Y0103997D01*
X0025250Y0120247D01*
X0014000Y0120247D01*
X0014000Y0101497D01*
X0022750Y0101497D01*
X0025250Y0103997D01*
X0022750Y0101497D01*
X0013500Y0101497D01*
X0013500Y0101637D02*
X0022890Y0101637D01*
X0023888Y0102635D02*
X0013500Y0102635D01*
X0013500Y0103634D02*
X0024887Y0103634D01*
X0025250Y0104632D02*
X0013500Y0104632D01*
X0013500Y0105631D02*
X0025250Y0105631D01*
X0025250Y0106629D02*
X0013500Y0106629D01*
X0013500Y0107628D02*
X0025250Y0107628D01*
X0025250Y0108626D02*
X0013500Y0108626D01*
X0013500Y0109625D02*
X0025250Y0109625D01*
X0025250Y0110623D02*
X0013500Y0110623D01*
X0013500Y0111622D02*
X0025250Y0111622D01*
X0025250Y0112620D02*
X0013500Y0112620D01*
X0013500Y0113619D02*
X0025250Y0113619D01*
X0025250Y0114617D02*
X0013500Y0114617D01*
X0013500Y0115616D02*
X0025250Y0115616D01*
X0025250Y0116614D02*
X0013500Y0116614D01*
X0013500Y0117613D02*
X0025250Y0117613D01*
X0025250Y0118611D02*
X0013500Y0118611D01*
X0013500Y0119610D02*
X0025250Y0119610D01*
X0025250Y0120608D02*
X0013500Y0120608D01*
X0027050Y0120608D02*
X0130169Y0120608D01*
X0130169Y0120707D02*
X0027050Y0120707D01*
X0027050Y0106497D01*
X0097181Y0106497D01*
X0097546Y0106862D01*
X0107954Y0106862D01*
X0108319Y0106497D01*
X0112045Y0106497D01*
X0115095Y0109547D01*
X0129550Y0109547D01*
X0130875Y0110872D01*
X0133643Y0110872D01*
X0133786Y0111015D01*
X0135193Y0111015D01*
X0133998Y0111510D01*
X0131514Y0113995D01*
X0130169Y0117240D01*
X0130169Y0120707D01*
X0130169Y0119610D02*
X0027050Y0119610D01*
X0027050Y0118611D02*
X0130169Y0118611D01*
X0130169Y0117613D02*
X0027050Y0117613D01*
X0027050Y0116614D02*
X0130429Y0116614D01*
X0130842Y0115616D02*
X0027050Y0115616D01*
X0027050Y0114617D02*
X0131256Y0114617D01*
X0131890Y0113619D02*
X0027050Y0113619D01*
X0027050Y0112620D02*
X0132888Y0112620D01*
X0133887Y0111622D02*
X0027050Y0111622D01*
X0027050Y0110623D02*
X0130626Y0110623D01*
X0129628Y0109625D02*
X0027050Y0109625D01*
X0027050Y0108626D02*
X0044000Y0108626D01*
X0044000Y0107628D02*
X0027050Y0107628D01*
X0113176Y0107628D01*
X0114174Y0108626D02*
X0027050Y0108626D01*
X0027050Y0106629D02*
X0044000Y0106629D01*
X0043134Y0105631D02*
X0027050Y0105631D01*
X0027050Y0106629D02*
X0097314Y0106629D01*
X0100250Y0103593D02*
X0105250Y0103593D01*
X0111687Y0103593D01*
X0115841Y0107747D01*
X0137081Y0107747D01*
X0140375Y0104478D02*
X0133786Y0104478D01*
X0133025Y0105240D01*
X0133025Y0105947D01*
X0117200Y0105947D01*
X0116500Y0105247D01*
X0119000Y0105247D01*
X0121500Y0102747D01*
X0121500Y0102773D01*
X0121500Y0102747D02*
X0121500Y0100247D01*
X0096500Y0100247D01*
X0092750Y0103997D01*
X0054404Y0103997D01*
X0050654Y0100247D01*
X0055471Y0095429D01*
X0056096Y0093372D01*
X0055831Y0089262D01*
X0055831Y0087737D01*
X0057073Y0084468D02*
X0052536Y0084468D01*
X0051775Y0085230D01*
X0051775Y0090244D01*
X0052536Y0091005D01*
X0052631Y0091005D01*
X0052631Y0095724D01*
X0051573Y0096781D01*
X0048147Y0096781D01*
X0047385Y0097543D01*
X0047385Y0102951D01*
X0048147Y0103712D01*
X0051573Y0103712D01*
X0052483Y0104622D01*
X0045250Y0104622D01*
X0032869Y0092241D01*
X0032869Y0090172D01*
X0041621Y0090172D01*
X0043496Y0088297D01*
X0044550Y0087242D01*
X0044550Y0081884D01*
X0044574Y0081884D01*
X0045636Y0081445D01*
X0046448Y0080632D01*
X0046887Y0079571D01*
X0046887Y0078422D01*
X0046581Y0077684D01*
X0051841Y0077684D01*
X0051775Y0077750D01*
X0051775Y0082764D01*
X0052536Y0083525D01*
X0056129Y0083525D01*
X0057073Y0084468D01*
X0056268Y0083663D02*
X0044550Y0083663D01*
X0044550Y0082665D02*
X0051775Y0082665D01*
X0051775Y0081666D02*
X0045100Y0081666D01*
X0046412Y0080668D02*
X0051775Y0080668D01*
X0051775Y0079669D02*
X0046847Y0079669D01*
X0046887Y0078671D02*
X0051775Y0078671D01*
X0055831Y0080257D02*
X0057410Y0081836D01*
X0057750Y0081497D01*
X0060875Y0081497D01*
X0061500Y0075247D02*
X0062376Y0074371D01*
X0067100Y0074371D01*
X0067100Y0077520D02*
X0066500Y0078120D01*
X0066500Y0098997D01*
X0064625Y0100872D01*
X0065875Y0100872D01*
X0068490Y0099640D02*
X0073231Y0099640D01*
X0073231Y0100638D02*
X0068762Y0100638D01*
X0068762Y0100297D02*
X0068762Y0101446D01*
X0068451Y0102197D01*
X0073231Y0102197D01*
X0073231Y0097139D01*
X0073993Y0096378D01*
X0078755Y0096378D01*
X0078035Y0095657D01*
X0078035Y0090643D01*
X0078796Y0089882D01*
X0079991Y0089882D01*
X0079863Y0089571D01*
X0079863Y0088422D01*
X0080302Y0087361D01*
X0080467Y0087197D01*
X0072050Y0087197D01*
X0072050Y0088238D01*
X0074125Y0088238D01*
X0074887Y0089000D01*
X0074887Y0094014D01*
X0074125Y0094775D01*
X0068300Y0094775D01*
X0068300Y0099213D01*
X0068323Y0099236D01*
X0068762Y0100297D01*
X0068683Y0101637D02*
X0073231Y0101637D01*
X0073231Y0098641D02*
X0068300Y0098641D01*
X0068300Y0097643D02*
X0073231Y0097643D01*
X0073727Y0096644D02*
X0068300Y0096644D01*
X0068300Y0095646D02*
X0078035Y0095646D01*
X0078035Y0094647D02*
X0074253Y0094647D01*
X0074887Y0093648D02*
X0078035Y0093648D01*
X0078035Y0092650D02*
X0074887Y0092650D01*
X0074887Y0091651D02*
X0078035Y0091651D01*
X0078035Y0090653D02*
X0074887Y0090653D01*
X0074887Y0089654D02*
X0079897Y0089654D01*
X0079863Y0088656D02*
X0074543Y0088656D01*
X0072050Y0087657D02*
X0080179Y0087657D01*
X0082425Y0088072D02*
X0082425Y0083397D01*
X0085575Y0083397D02*
X0085575Y0075572D01*
X0084000Y0073997D01*
X0084000Y0063997D01*
X0090250Y0057747D01*
X0091874Y0054371D02*
X0094000Y0056497D01*
X0094000Y0058997D01*
X0086500Y0066497D01*
X0086500Y0071497D01*
X0089000Y0073997D01*
X0089000Y0083121D01*
X0088724Y0083397D01*
X0091559Y0083712D02*
X0091559Y0091113D01*
X0089570Y0090653D02*
X0088430Y0090653D01*
X0089000Y0091113D02*
X0089000Y0095247D01*
X0087750Y0096497D01*
X0076500Y0096497D01*
X0074571Y0096497D01*
X0070831Y0098987D01*
X0076500Y0099843D02*
X0081500Y0099843D01*
X0089846Y0099843D01*
X0091559Y0099381D01*
X0090693Y0100247D01*
X0089000Y0100247D01*
X0088076Y0097504D02*
X0088426Y0097359D01*
X0089574Y0097359D01*
X0089924Y0097504D01*
X0090332Y0097096D01*
X0092787Y0097096D01*
X0093548Y0097858D01*
X0093548Y0100653D01*
X0095754Y0098447D01*
X0096785Y0098447D01*
X0096785Y0094393D01*
X0097546Y0093632D01*
X0100116Y0093632D01*
X0100950Y0092247D01*
X0100950Y0092001D01*
X0101113Y0091839D01*
X0101113Y0090922D01*
X0101552Y0089861D01*
X0101867Y0089547D01*
X0097512Y0089547D01*
X0097512Y0089571D01*
X0097073Y0090632D01*
X0096261Y0091445D01*
X0095199Y0091884D01*
X0094051Y0091884D01*
X0093548Y0091676D01*
X0093548Y0092636D01*
X0092787Y0093397D01*
X0090332Y0093397D01*
X0089570Y0092636D01*
X0089570Y0089590D01*
X0089759Y0089401D01*
X0089759Y0087197D01*
X0085033Y0087197D01*
X0085198Y0087361D01*
X0085637Y0088422D01*
X0085637Y0088829D01*
X0087668Y0088829D01*
X0088430Y0089590D01*
X0088430Y0092636D01*
X0087668Y0093397D01*
X0085213Y0093397D01*
X0084965Y0093149D01*
X0084965Y0095657D01*
X0084204Y0096419D01*
X0079048Y0096419D01*
X0079204Y0096575D01*
X0084204Y0096575D01*
X0084965Y0097336D01*
X0084965Y0097345D01*
X0085213Y0097096D01*
X0087668Y0097096D01*
X0088076Y0097504D01*
X0084965Y0095646D02*
X0096785Y0095646D01*
X0096785Y0096644D02*
X0084273Y0096644D01*
X0084965Y0094647D02*
X0096785Y0094647D01*
X0097529Y0093648D02*
X0084965Y0093648D01*
X0082750Y0091900D02*
X0082750Y0088997D01*
X0082425Y0088072D01*
X0085321Y0087657D02*
X0089759Y0087657D01*
X0089759Y0088656D02*
X0085637Y0088656D01*
X0088430Y0089654D02*
X0089570Y0089654D01*
X0089570Y0091651D02*
X0088430Y0091651D01*
X0088416Y0092650D02*
X0089584Y0092650D01*
X0093534Y0092650D02*
X0100707Y0092650D01*
X0101113Y0091651D02*
X0095761Y0091651D01*
X0097052Y0090653D02*
X0101224Y0090653D01*
X0101759Y0089654D02*
X0097478Y0089654D01*
X0096500Y0087747D02*
X0094625Y0088997D01*
X0096500Y0087747D02*
X0116500Y0087747D01*
X0120250Y0083997D01*
X0120250Y0081497D01*
X0130250Y0071497D01*
X0139625Y0071497D01*
X0141951Y0067697D02*
X0141951Y0065297D01*
X0134087Y0065297D01*
X0133325Y0064535D01*
X0133325Y0063597D01*
X0129965Y0063597D01*
X0129965Y0063600D01*
X0129204Y0064362D01*
X0123796Y0064362D01*
X0123035Y0063600D01*
X0123035Y0058586D01*
X0123796Y0057825D01*
X0124400Y0057825D01*
X0124400Y0057669D01*
X0123796Y0057669D01*
X0123035Y0056907D01*
X0123035Y0056097D01*
X0122324Y0056097D01*
X0122285Y0056192D01*
X0121195Y0057282D01*
X0119771Y0057872D01*
X0118229Y0057872D01*
X0116805Y0057282D01*
X0115715Y0056192D01*
X0115125Y0054767D01*
X0115125Y0053226D01*
X0115715Y0051802D01*
X0116720Y0050797D01*
X0102246Y0050797D01*
X0101887Y0051155D01*
X0101887Y0051839D01*
X0102700Y0052651D01*
X0102700Y0053073D01*
X0103938Y0053073D01*
X0104700Y0053835D01*
X0104700Y0055484D01*
X0105824Y0055484D01*
X0106886Y0055924D01*
X0107698Y0056736D01*
X0108137Y0057797D01*
X0108137Y0058946D01*
X0107698Y0060007D01*
X0106886Y0060820D01*
X0106186Y0061109D01*
X0107074Y0061109D01*
X0108136Y0061549D01*
X0108948Y0062361D01*
X0109387Y0063422D01*
X0109387Y0064571D01*
X0108948Y0065632D01*
X0108136Y0066445D01*
X0107074Y0066884D01*
X0105926Y0066884D01*
X0105534Y0066722D01*
X0104538Y0066722D01*
X0103938Y0067322D01*
X0097862Y0067322D01*
X0097100Y0066560D01*
X0097100Y0053835D01*
X0097177Y0053757D01*
X0096739Y0053319D01*
X0096662Y0053397D01*
X0093674Y0053397D01*
X0093674Y0053625D01*
X0094746Y0054697D01*
X0095800Y0055751D01*
X0095800Y0059742D01*
X0089261Y0066281D01*
X0089676Y0066109D01*
X0090824Y0066109D01*
X0091886Y0066549D01*
X0092698Y0067361D01*
X0093137Y0068422D01*
X0093137Y0069339D01*
X0093220Y0069421D01*
X0097262Y0069421D01*
X0097862Y0068821D01*
X0103938Y0068821D01*
X0104700Y0069583D01*
X0104700Y0072571D01*
X0105120Y0072571D01*
X0109908Y0077359D01*
X0110824Y0077359D01*
X0111886Y0077799D01*
X0112698Y0078611D01*
X0113137Y0079672D01*
X0113137Y0079979D01*
X0113426Y0079859D01*
X0114574Y0079859D01*
X0115636Y0080299D01*
X0115950Y0080613D01*
X0115950Y0080126D01*
X0122200Y0073876D01*
X0122200Y0069742D01*
X0120166Y0067708D01*
X0119771Y0067872D01*
X0118229Y0067872D01*
X0116805Y0067282D01*
X0115715Y0066192D01*
X0115125Y0064767D01*
X0115125Y0063226D01*
X0115715Y0061802D01*
X0116805Y0060712D01*
X0118229Y0060122D01*
X0119771Y0060122D01*
X0121195Y0060712D01*
X0122285Y0061802D01*
X0122875Y0063226D01*
X0122875Y0064767D01*
X0122711Y0065162D01*
X0125800Y0068251D01*
X0125800Y0073401D01*
X0128450Y0070751D01*
X0129504Y0069697D01*
X0133325Y0069697D01*
X0133325Y0068458D01*
X0134087Y0067697D01*
X0141951Y0067697D01*
X0141951Y0067687D02*
X0125236Y0067687D01*
X0125800Y0068686D02*
X0133325Y0068686D01*
X0133325Y0069684D02*
X0125800Y0069684D01*
X0125800Y0070683D02*
X0128518Y0070683D01*
X0127520Y0071681D02*
X0125800Y0071681D01*
X0125800Y0072680D02*
X0126521Y0072680D01*
X0124000Y0074622D02*
X0124000Y0068997D01*
X0119000Y0063997D01*
X0116212Y0066689D02*
X0107546Y0066689D01*
X0108890Y0065690D02*
X0115507Y0065690D01*
X0115125Y0064692D02*
X0109337Y0064692D01*
X0109387Y0063693D02*
X0115125Y0063693D01*
X0115345Y0062695D02*
X0109086Y0062695D01*
X0108283Y0061696D02*
X0115821Y0061696D01*
X0116839Y0060698D02*
X0107008Y0060698D01*
X0107825Y0059699D02*
X0123035Y0059699D01*
X0123035Y0058701D02*
X0108137Y0058701D01*
X0108098Y0057702D02*
X0117820Y0057702D01*
X0120180Y0057702D02*
X0124400Y0057702D01*
X0123035Y0056704D02*
X0121773Y0056704D01*
X0121161Y0060698D02*
X0123035Y0060698D01*
X0123035Y0061696D02*
X0122179Y0061696D01*
X0122655Y0062695D02*
X0123035Y0062695D01*
X0123128Y0063693D02*
X0122875Y0063693D01*
X0122875Y0064692D02*
X0133481Y0064692D01*
X0133325Y0063693D02*
X0129872Y0063693D01*
X0128596Y0061497D02*
X0126500Y0061093D01*
X0123239Y0065690D02*
X0141951Y0065690D01*
X0141951Y0066689D02*
X0124238Y0066689D01*
X0122142Y0069684D02*
X0104700Y0069684D01*
X0104700Y0070683D02*
X0122200Y0070683D01*
X0122200Y0071681D02*
X0104700Y0071681D01*
X0105229Y0072680D02*
X0122200Y0072680D01*
X0122200Y0073678D02*
X0106227Y0073678D01*
X0107226Y0074677D02*
X0121399Y0074677D01*
X0120401Y0075675D02*
X0108224Y0075675D01*
X0109223Y0076674D02*
X0119402Y0076674D01*
X0118404Y0077672D02*
X0111580Y0077672D01*
X0112723Y0078671D02*
X0117405Y0078671D01*
X0116407Y0079669D02*
X0113136Y0079669D01*
X0110250Y0080247D02*
X0104374Y0074371D01*
X0100900Y0074371D01*
X0100900Y0077520D02*
X0107376Y0083997D01*
X0112750Y0083997D01*
X0114000Y0082747D01*
X0115850Y0085897D02*
X0117750Y0083997D01*
X0117750Y0080872D01*
X0124000Y0074622D01*
X0126620Y0077672D02*
X0141951Y0077672D01*
X0141951Y0076674D02*
X0127619Y0076674D01*
X0128617Y0075675D02*
X0141951Y0075675D01*
X0141951Y0075297D02*
X0134087Y0075297D01*
X0133325Y0074535D01*
X0133325Y0073297D01*
X0130996Y0073297D01*
X0122050Y0082242D01*
X0122050Y0084742D01*
X0118300Y0088492D01*
X0117246Y0089547D01*
X0111619Y0089547D01*
X0111619Y0094004D01*
X0110857Y0094765D01*
X0105450Y0094765D01*
X0104924Y0094239D01*
X0104574Y0094384D01*
X0103865Y0094384D01*
X0103715Y0094633D01*
X0103715Y0098447D01*
X0114700Y0098447D01*
X0114700Y0098251D01*
X0115754Y0097197D01*
X0128254Y0084697D01*
X0128300Y0084697D01*
X0128375Y0084622D01*
X0141951Y0084622D01*
X0141951Y0075297D01*
X0141951Y0078671D02*
X0125621Y0078671D01*
X0124623Y0079669D02*
X0141951Y0079669D01*
X0141951Y0080668D02*
X0123624Y0080668D01*
X0122626Y0081666D02*
X0141951Y0081666D01*
X0141951Y0082665D02*
X0122050Y0082665D01*
X0122050Y0083663D02*
X0141951Y0083663D01*
X0141951Y0086497D02*
X0129000Y0086497D01*
X0116500Y0098997D01*
X0116500Y0105247D01*
X0116500Y0098997D01*
X0129000Y0086497D01*
X0142125Y0086497D01*
X0142125Y0103997D01*
X0132750Y0103997D01*
X0130250Y0105247D01*
X0119000Y0105247D01*
X0116884Y0105631D02*
X0133025Y0105631D01*
X0133632Y0104632D02*
X0116500Y0104632D01*
X0116500Y0103634D02*
X0141951Y0103634D01*
X0141951Y0104632D02*
X0140529Y0104632D01*
X0140375Y0104478D02*
X0141137Y0105240D01*
X0141137Y0108997D01*
X0141951Y0108997D01*
X0141951Y0086497D01*
X0141951Y0086659D02*
X0128838Y0086659D01*
X0127839Y0087657D02*
X0141951Y0087657D01*
X0141951Y0088656D02*
X0126841Y0088656D01*
X0125842Y0089654D02*
X0141951Y0089654D01*
X0141951Y0090653D02*
X0124844Y0090653D01*
X0123845Y0091651D02*
X0141951Y0091651D01*
X0141951Y0092650D02*
X0122847Y0092650D01*
X0121848Y0093648D02*
X0141951Y0093648D01*
X0141951Y0094647D02*
X0120850Y0094647D01*
X0119851Y0095646D02*
X0141951Y0095646D01*
X0141951Y0096644D02*
X0118853Y0096644D01*
X0117854Y0097643D02*
X0141951Y0097643D01*
X0141951Y0098641D02*
X0116856Y0098641D01*
X0116500Y0099640D02*
X0141951Y0099640D01*
X0141951Y0100638D02*
X0116500Y0100638D01*
X0116500Y0101637D02*
X0141951Y0101637D01*
X0141951Y0102635D02*
X0116500Y0102635D01*
X0112177Y0106629D02*
X0108186Y0106629D01*
X0103715Y0097643D02*
X0115309Y0097643D01*
X0115754Y0097197D02*
X0115754Y0097197D01*
X0116307Y0096644D02*
X0103715Y0096644D01*
X0103715Y0095646D02*
X0117306Y0095646D01*
X0118304Y0094647D02*
X0110976Y0094647D01*
X0111619Y0093648D02*
X0119303Y0093648D01*
X0120301Y0092650D02*
X0111619Y0092650D01*
X0111619Y0091651D02*
X0121300Y0091651D01*
X0122298Y0090653D02*
X0111619Y0090653D01*
X0111619Y0089654D02*
X0123297Y0089654D01*
X0124295Y0088656D02*
X0118136Y0088656D01*
X0119135Y0087657D02*
X0125294Y0087657D01*
X0126292Y0086659D02*
X0120133Y0086659D01*
X0121132Y0085660D02*
X0127291Y0085660D01*
X0128335Y0084662D02*
X0122050Y0084662D01*
X0115850Y0085897D02*
X0097524Y0085897D01*
X0095024Y0083397D01*
X0091874Y0083397D02*
X0091559Y0083712D01*
X0082750Y0091900D02*
X0081500Y0093150D01*
X0076500Y0093150D02*
X0076500Y0096497D01*
X0070831Y0091507D02*
X0070250Y0090926D01*
X0070250Y0080247D01*
X0076500Y0073997D01*
X0076500Y0062747D01*
X0074000Y0060247D01*
X0072365Y0062695D02*
X0070900Y0062695D01*
X0070900Y0063411D02*
X0070138Y0064172D01*
X0065261Y0064172D01*
X0063400Y0066034D01*
X0063400Y0066172D01*
X0063562Y0066172D01*
X0064062Y0065672D01*
X0070138Y0065672D01*
X0070900Y0066433D01*
X0070900Y0069710D01*
X0070138Y0070472D01*
X0064062Y0070472D01*
X0063562Y0069972D01*
X0063400Y0069972D01*
X0063400Y0070005D01*
X0062287Y0071118D01*
X0061046Y0072359D01*
X0062074Y0072359D01*
X0062585Y0072571D01*
X0063462Y0072571D01*
X0064062Y0071971D01*
X0070138Y0071971D01*
X0070900Y0072732D01*
X0070900Y0077051D01*
X0074700Y0073251D01*
X0074700Y0063492D01*
X0074342Y0063134D01*
X0073426Y0063134D01*
X0072364Y0062695D01*
X0071552Y0061882D01*
X0071113Y0060821D01*
X0071113Y0059672D01*
X0071552Y0058611D01*
X0072364Y0057799D01*
X0072642Y0057684D01*
X0070900Y0055942D01*
X0070900Y0057112D01*
X0070900Y0063411D01*
X0070618Y0063693D02*
X0074700Y0063693D01*
X0074700Y0064692D02*
X0064742Y0064692D01*
X0064043Y0065690D02*
X0063744Y0065690D01*
X0067100Y0064922D02*
X0072425Y0065247D01*
X0072750Y0064622D01*
X0072750Y0070247D01*
X0071776Y0071221D01*
X0067100Y0071221D01*
X0070847Y0072680D02*
X0074700Y0072680D01*
X0074700Y0071681D02*
X0061724Y0071681D01*
X0062722Y0070683D02*
X0074700Y0070683D01*
X0074700Y0069684D02*
X0070900Y0069684D01*
X0070900Y0068686D02*
X0074700Y0068686D01*
X0074700Y0067687D02*
X0070900Y0067687D01*
X0070900Y0066689D02*
X0074700Y0066689D01*
X0074700Y0065690D02*
X0070157Y0065690D01*
X0070900Y0061696D02*
X0071475Y0061696D01*
X0071113Y0060698D02*
X0070900Y0060698D01*
X0070900Y0059699D02*
X0071113Y0059699D01*
X0070900Y0058701D02*
X0071515Y0058701D01*
X0070900Y0057702D02*
X0072598Y0057702D01*
X0071661Y0056704D02*
X0070900Y0056704D01*
X0074000Y0056497D02*
X0065654Y0048150D01*
X0063557Y0048150D01*
X0060250Y0044843D01*
X0060250Y0044218D01*
X0060250Y0042122D01*
X0060250Y0044218D02*
X0055250Y0044218D01*
X0057610Y0040950D02*
X0052546Y0040950D01*
X0051785Y0041711D01*
X0051785Y0046572D01*
X0047629Y0046572D01*
X0046575Y0047626D01*
X0031887Y0062314D01*
X0031887Y0062172D01*
X0031448Y0061111D01*
X0030729Y0060393D01*
X0044000Y0047122D01*
X0044000Y0034547D01*
X0062385Y0034547D01*
X0062385Y0035451D01*
X0063147Y0036212D01*
X0068161Y0036212D01*
X0068922Y0035451D01*
X0068922Y0032247D01*
X0069078Y0032247D01*
X0069078Y0035451D01*
X0069839Y0036212D01*
X0074853Y0036212D01*
X0075615Y0035451D01*
X0075615Y0034695D01*
X0076114Y0035195D01*
X0077176Y0035634D01*
X0078324Y0035634D01*
X0079386Y0035195D01*
X0080033Y0034547D01*
X0081981Y0034547D01*
X0081981Y0036710D01*
X0082743Y0037472D01*
X0087757Y0037472D01*
X0088518Y0036710D01*
X0088518Y0032247D01*
X0130169Y0032247D01*
X0130169Y0035753D01*
X0131514Y0038999D01*
X0133998Y0041483D01*
X0137243Y0042827D01*
X0140757Y0042827D01*
X0141951Y0042333D01*
X0141951Y0047697D01*
X0138758Y0047697D01*
X0138948Y0047507D01*
X0139387Y0046446D01*
X0139387Y0045297D01*
X0138948Y0044236D01*
X0138136Y0043424D01*
X0137074Y0042984D01*
X0136158Y0042984D01*
X0135371Y0042197D01*
X0093254Y0042197D01*
X0092259Y0043193D01*
X0092259Y0038783D01*
X0091497Y0038022D01*
X0086483Y0038022D01*
X0085722Y0038783D01*
X0085722Y0045372D01*
X0086147Y0045797D01*
X0080846Y0045797D01*
X0080021Y0044972D01*
X0077871Y0042822D01*
X0066283Y0042822D01*
X0065636Y0042174D01*
X0064574Y0041734D01*
X0063426Y0041734D01*
X0063137Y0041854D01*
X0063137Y0041547D01*
X0062698Y0040486D01*
X0061886Y0039674D01*
X0060824Y0039234D01*
X0059676Y0039234D01*
X0058614Y0039674D01*
X0057802Y0040486D01*
X0057610Y0040950D01*
X0057702Y0040727D02*
X0044000Y0040727D01*
X0044000Y0039729D02*
X0058559Y0039729D01*
X0061941Y0039729D02*
X0085722Y0039729D01*
X0085722Y0040727D02*
X0062798Y0040727D01*
X0063137Y0041726D02*
X0085722Y0041726D01*
X0085722Y0042724D02*
X0066186Y0042724D01*
X0064000Y0044622D02*
X0077125Y0044622D01*
X0079276Y0046772D01*
X0079276Y0049597D01*
X0080769Y0045720D02*
X0086070Y0045720D01*
X0085722Y0044721D02*
X0079770Y0044721D01*
X0078772Y0043723D02*
X0085722Y0043723D01*
X0088724Y0043721D02*
X0088331Y0040827D01*
X0088990Y0042077D01*
X0088724Y0043721D02*
X0088724Y0049597D01*
X0085575Y0049597D02*
X0085575Y0057422D01*
X0082750Y0060247D01*
X0079000Y0058997D02*
X0076500Y0056497D01*
X0074000Y0056497D01*
X0079000Y0058997D02*
X0079000Y0075247D01*
X0072976Y0081270D01*
X0072976Y0083397D01*
X0071277Y0076674D02*
X0070900Y0076674D01*
X0070900Y0075675D02*
X0072276Y0075675D01*
X0073274Y0074677D02*
X0070900Y0074677D01*
X0070900Y0073678D02*
X0074273Y0073678D01*
X0067100Y0061772D02*
X0064974Y0061772D01*
X0061844Y0061152D02*
X0064374Y0058623D01*
X0067100Y0058623D01*
X0063300Y0057151D02*
X0063300Y0057047D01*
X0063254Y0057047D01*
X0062200Y0055992D01*
X0061192Y0054985D01*
X0060024Y0054985D01*
X0060024Y0055298D01*
X0059263Y0056060D01*
X0048737Y0056060D01*
X0047976Y0055298D01*
X0047976Y0051317D01*
X0030800Y0068492D01*
X0030800Y0082963D01*
X0031448Y0083611D01*
X0031887Y0084672D01*
X0031887Y0085821D01*
X0031576Y0086572D01*
X0038296Y0086572D01*
X0037989Y0086445D01*
X0037177Y0085632D01*
X0036738Y0084571D01*
X0036738Y0083422D01*
X0037177Y0082361D01*
X0037989Y0081549D01*
X0038450Y0081358D01*
X0038450Y0070655D01*
X0037802Y0070007D01*
X0037363Y0068946D01*
X0037363Y0067797D01*
X0037802Y0066736D01*
X0038614Y0065924D01*
X0039676Y0065484D01*
X0040824Y0065484D01*
X0041886Y0065924D01*
X0042698Y0066736D01*
X0043137Y0067797D01*
X0043137Y0067886D01*
X0046004Y0070753D01*
X0054572Y0070753D01*
X0055163Y0070412D01*
X0056437Y0070753D01*
X0057278Y0070753D01*
X0059600Y0068431D01*
X0059600Y0064460D01*
X0060713Y0063347D01*
X0061108Y0062952D01*
X0061099Y0062952D01*
X0061090Y0062943D01*
X0060024Y0062931D01*
X0060024Y0063172D01*
X0059263Y0063934D01*
X0048737Y0063934D01*
X0047976Y0063172D01*
X0047976Y0058945D01*
X0048737Y0058184D01*
X0059263Y0058184D01*
X0060024Y0058945D01*
X0060024Y0059330D01*
X0061108Y0059343D01*
X0063300Y0057151D01*
X0062911Y0056704D02*
X0042589Y0056704D01*
X0041590Y0057702D02*
X0062749Y0057702D01*
X0061751Y0058701D02*
X0059780Y0058701D01*
X0061844Y0061152D02*
X0054000Y0061059D01*
X0059503Y0063693D02*
X0060367Y0063693D01*
X0059600Y0064692D02*
X0034601Y0064692D01*
X0035599Y0063693D02*
X0048497Y0063693D01*
X0047976Y0062695D02*
X0036598Y0062695D01*
X0037596Y0061696D02*
X0047976Y0061696D01*
X0047976Y0060698D02*
X0038595Y0060698D01*
X0039593Y0059699D02*
X0047976Y0059699D01*
X0048220Y0058701D02*
X0040592Y0058701D01*
X0038496Y0055705D02*
X0035417Y0055705D01*
X0036415Y0054707D02*
X0039495Y0054707D01*
X0040493Y0053708D02*
X0037414Y0053708D01*
X0038412Y0052710D02*
X0041492Y0052710D01*
X0042490Y0051711D02*
X0039411Y0051711D01*
X0039625Y0052747D02*
X0049000Y0042747D01*
X0055250Y0037525D01*
X0051785Y0041726D02*
X0044000Y0041726D01*
X0044000Y0042724D02*
X0051785Y0042724D01*
X0051785Y0043723D02*
X0044000Y0043723D01*
X0044000Y0044721D02*
X0051785Y0044721D01*
X0051785Y0045720D02*
X0044000Y0045720D01*
X0044000Y0046718D02*
X0047483Y0046718D01*
X0046484Y0047717D02*
X0043405Y0047717D01*
X0042406Y0048715D02*
X0045486Y0048715D01*
X0044487Y0049714D02*
X0041408Y0049714D01*
X0040409Y0050712D02*
X0043489Y0050712D01*
X0045584Y0053708D02*
X0047976Y0053708D01*
X0047976Y0052710D02*
X0046583Y0052710D01*
X0047581Y0051711D02*
X0047976Y0051711D01*
X0047976Y0054707D02*
X0044586Y0054707D01*
X0043587Y0055705D02*
X0048383Y0055705D01*
X0054000Y0053185D02*
X0061938Y0053185D01*
X0064000Y0055247D01*
X0066874Y0055247D01*
X0067100Y0055473D01*
X0061913Y0055705D02*
X0059617Y0055705D01*
X0059000Y0048372D02*
X0048375Y0048372D01*
X0029000Y0067747D01*
X0029000Y0085247D01*
X0031887Y0085660D02*
X0037205Y0085660D01*
X0036775Y0084662D02*
X0031883Y0084662D01*
X0031469Y0083663D02*
X0036738Y0083663D01*
X0037051Y0082665D02*
X0030800Y0082665D01*
X0030800Y0081666D02*
X0037872Y0081666D01*
X0038450Y0080668D02*
X0030800Y0080668D01*
X0030800Y0079669D02*
X0038450Y0079669D01*
X0038450Y0078671D02*
X0030800Y0078671D01*
X0030800Y0077672D02*
X0038450Y0077672D01*
X0038450Y0076674D02*
X0030800Y0076674D01*
X0030800Y0075675D02*
X0038450Y0075675D01*
X0038450Y0074677D02*
X0030800Y0074677D01*
X0030800Y0073678D02*
X0038450Y0073678D01*
X0038450Y0072680D02*
X0030800Y0072680D01*
X0030800Y0071681D02*
X0038450Y0071681D01*
X0038450Y0070683D02*
X0030800Y0070683D01*
X0030800Y0069684D02*
X0037668Y0069684D01*
X0037363Y0068686D02*
X0030800Y0068686D01*
X0031605Y0067687D02*
X0037408Y0067687D01*
X0037850Y0066689D02*
X0032604Y0066689D01*
X0033602Y0065690D02*
X0039179Y0065690D01*
X0041321Y0065690D02*
X0059600Y0065690D01*
X0059600Y0066689D02*
X0042650Y0066689D01*
X0043092Y0067687D02*
X0059600Y0067687D01*
X0059345Y0068686D02*
X0043937Y0068686D01*
X0044936Y0069684D02*
X0058347Y0069684D01*
X0057348Y0070683D02*
X0056175Y0070683D01*
X0054693Y0070683D02*
X0045934Y0070683D01*
X0051500Y0067525D02*
X0056500Y0067525D01*
X0055417Y0072343D02*
X0056500Y0074218D01*
X0055831Y0074887D01*
X0047169Y0083997D02*
X0047169Y0085827D01*
X0044550Y0085660D02*
X0051775Y0085660D01*
X0051775Y0086659D02*
X0044550Y0086659D01*
X0044135Y0087657D02*
X0051775Y0087657D01*
X0051775Y0088656D02*
X0043136Y0088656D01*
X0042138Y0089654D02*
X0051775Y0089654D01*
X0052184Y0090653D02*
X0032869Y0090653D01*
X0032869Y0091651D02*
X0052631Y0091651D01*
X0052631Y0092650D02*
X0033278Y0092650D01*
X0034277Y0093648D02*
X0052631Y0093648D01*
X0052631Y0094647D02*
X0035275Y0094647D01*
X0036274Y0095646D02*
X0052631Y0095646D01*
X0051711Y0096644D02*
X0037272Y0096644D01*
X0038271Y0097643D02*
X0047385Y0097643D01*
X0047385Y0098641D02*
X0039269Y0098641D01*
X0040268Y0099640D02*
X0047385Y0099640D01*
X0047385Y0100638D02*
X0041266Y0100638D01*
X0042265Y0101637D02*
X0047385Y0101637D01*
X0047385Y0102635D02*
X0043263Y0102635D01*
X0044262Y0103634D02*
X0048068Y0103634D01*
X0042135Y0104632D02*
X0027050Y0104632D01*
X0027050Y0103634D02*
X0041137Y0103634D01*
X0039619Y0102635D02*
X0026434Y0102635D01*
X0025435Y0101637D02*
X0039140Y0101637D01*
X0038141Y0100638D02*
X0024437Y0100638D01*
X0027125Y0088372D02*
X0040875Y0088372D01*
X0042750Y0086497D01*
X0042750Y0080247D01*
X0044000Y0078997D01*
X0040250Y0083372D02*
X0039625Y0083997D01*
X0040250Y0083372D02*
X0040250Y0068372D01*
X0040654Y0068372D01*
X0033504Y0060698D02*
X0031034Y0060698D01*
X0031423Y0059699D02*
X0034502Y0059699D01*
X0035501Y0058701D02*
X0032421Y0058701D01*
X0033420Y0057702D02*
X0036499Y0057702D01*
X0037498Y0056704D02*
X0034418Y0056704D01*
X0035287Y0052710D02*
X0024083Y0052710D01*
X0025081Y0051711D02*
X0036286Y0051711D01*
X0037284Y0050712D02*
X0026080Y0050712D01*
X0027050Y0049714D02*
X0038283Y0049714D01*
X0039281Y0048715D02*
X0027050Y0048715D01*
X0027050Y0047717D02*
X0040280Y0047717D01*
X0041278Y0046718D02*
X0027050Y0046718D01*
X0027050Y0045720D02*
X0041500Y0045720D01*
X0041500Y0046497D02*
X0041500Y0032122D01*
X0027125Y0032122D01*
X0027050Y0033738D02*
X0041500Y0033738D01*
X0041500Y0034736D02*
X0027050Y0034736D01*
X0027050Y0035735D02*
X0041500Y0035735D01*
X0041500Y0036733D02*
X0027050Y0036733D01*
X0027050Y0037732D02*
X0041500Y0037732D01*
X0041500Y0038730D02*
X0027050Y0038730D01*
X0027050Y0039729D02*
X0041500Y0039729D01*
X0041500Y0040727D02*
X0027050Y0040727D01*
X0027050Y0041726D02*
X0041500Y0041726D01*
X0041500Y0042724D02*
X0027050Y0042724D01*
X0027050Y0043723D02*
X0041500Y0043723D01*
X0041500Y0044721D02*
X0027050Y0044721D01*
X0039000Y0033997D02*
X0040250Y0032747D01*
X0065654Y0032747D01*
X0062385Y0034736D02*
X0044000Y0034736D01*
X0044000Y0035735D02*
X0062669Y0035735D01*
X0068638Y0035735D02*
X0069362Y0035735D01*
X0069078Y0034736D02*
X0068922Y0034736D01*
X0068922Y0033738D02*
X0069078Y0033738D01*
X0069078Y0032739D02*
X0068922Y0032739D01*
X0072346Y0032747D02*
X0077750Y0032747D01*
X0083419Y0032747D01*
X0085250Y0033416D01*
X0088518Y0033738D02*
X0130169Y0033738D01*
X0130169Y0034736D02*
X0088518Y0034736D01*
X0088518Y0035735D02*
X0130169Y0035735D01*
X0130575Y0036733D02*
X0088496Y0036733D01*
X0085774Y0038730D02*
X0044000Y0038730D01*
X0044000Y0037732D02*
X0130989Y0037732D01*
X0131402Y0038730D02*
X0092206Y0038730D01*
X0092259Y0039729D02*
X0132244Y0039729D01*
X0133242Y0040727D02*
X0092259Y0040727D01*
X0092259Y0041726D02*
X0134584Y0041726D01*
X0135898Y0042724D02*
X0136995Y0042724D01*
X0138435Y0043723D02*
X0141951Y0043723D01*
X0141951Y0044721D02*
X0139149Y0044721D01*
X0139387Y0045720D02*
X0141951Y0045720D01*
X0141951Y0046718D02*
X0139275Y0046718D01*
X0136500Y0045872D02*
X0134625Y0043997D01*
X0094000Y0043997D01*
X0091874Y0046123D01*
X0091874Y0049597D01*
X0091874Y0054371D01*
X0093757Y0053708D02*
X0097128Y0053708D01*
X0097100Y0054707D02*
X0094755Y0054707D01*
X0095754Y0055705D02*
X0097100Y0055705D01*
X0097100Y0056704D02*
X0095800Y0056704D01*
X0095800Y0057702D02*
X0097100Y0057702D01*
X0097100Y0058701D02*
X0095800Y0058701D01*
X0095800Y0059699D02*
X0097100Y0059699D01*
X0097100Y0060698D02*
X0094845Y0060698D01*
X0093846Y0061696D02*
X0097100Y0061696D01*
X0097100Y0062695D02*
X0092848Y0062695D01*
X0091849Y0063693D02*
X0097100Y0063693D01*
X0097100Y0064692D02*
X0090851Y0064692D01*
X0089852Y0065690D02*
X0097100Y0065690D01*
X0097228Y0066689D02*
X0092025Y0066689D01*
X0092833Y0067687D02*
X0117784Y0067687D01*
X0121143Y0068686D02*
X0093137Y0068686D01*
X0092474Y0071221D02*
X0090250Y0068997D01*
X0092474Y0071221D02*
X0100900Y0071221D01*
X0100900Y0068072D02*
X0096825Y0068072D01*
X0094000Y0065247D01*
X0100900Y0064922D02*
X0105575Y0064922D01*
X0106500Y0063997D01*
X0105250Y0058372D02*
X0103124Y0058623D01*
X0100900Y0058623D01*
X0100900Y0055473D02*
X0100900Y0053397D01*
X0099000Y0051497D01*
X0101500Y0048997D01*
X0127750Y0048997D01*
X0135250Y0056497D01*
X0136500Y0056497D01*
X0134000Y0051497D02*
X0139625Y0051497D01*
X0134000Y0051497D02*
X0129000Y0046497D01*
X0099000Y0046497D01*
X0095900Y0049597D01*
X0095024Y0049597D01*
X0101887Y0051711D02*
X0115806Y0051711D01*
X0115339Y0052710D02*
X0102700Y0052710D01*
X0104573Y0053708D02*
X0115125Y0053708D01*
X0115125Y0054707D02*
X0104700Y0054707D01*
X0106357Y0055705D02*
X0115514Y0055705D01*
X0116227Y0056704D02*
X0107665Y0056704D01*
X0092727Y0042724D02*
X0092259Y0042724D01*
X0088518Y0032739D02*
X0130169Y0032739D01*
X0141005Y0042724D02*
X0141951Y0042724D01*
X0133325Y0073678D02*
X0130614Y0073678D01*
X0129616Y0074677D02*
X0133467Y0074677D01*
X0114846Y0091497D02*
X0109846Y0096497D01*
X0109000Y0096497D01*
X0105654Y0096497D01*
X0105250Y0096900D01*
X0105331Y0094647D02*
X0103715Y0094647D01*
X0102750Y0092747D02*
X0104000Y0091497D01*
X0108154Y0091497D01*
X0102750Y0092747D02*
X0100250Y0096900D01*
X0096785Y0097643D02*
X0093333Y0097643D01*
X0093548Y0098641D02*
X0095560Y0098641D01*
X0094562Y0099640D02*
X0093548Y0099640D01*
X0093548Y0100638D02*
X0093563Y0100638D01*
X0062169Y0095247D02*
X0057346Y0100247D01*
X0060875Y0100247D01*
X0052343Y0084662D02*
X0044550Y0084662D01*
X0027125Y0088372D02*
X0025875Y0087122D01*
X0025875Y0065872D01*
X0029000Y0062747D01*
X0031690Y0061696D02*
X0032505Y0061696D01*
X0041500Y0046497D02*
X0041500Y0032247D01*
X0044000Y0036733D02*
X0082004Y0036733D01*
X0081981Y0035735D02*
X0075331Y0035735D01*
X0075615Y0034736D02*
X0075656Y0034736D01*
X0079844Y0034736D02*
X0081981Y0034736D01*
X0081510Y0042077D02*
X0076456Y0041452D01*
X0075250Y0040247D01*
X0141137Y0105631D02*
X0141951Y0105631D01*
X0141951Y0106629D02*
X0141137Y0106629D01*
X0141137Y0107628D02*
X0141951Y0107628D01*
X0141951Y0108626D02*
X0141137Y0108626D01*
D27*
X0124625Y0083372D03*
X0129625Y0077122D03*
X0134625Y0077122D03*
X0139625Y0077122D03*
X0129625Y0067122D03*
X0107750Y0070247D03*
X0094000Y0065247D03*
X0097750Y0040247D03*
X0097750Y0035247D03*
X0075250Y0040247D03*
X0059000Y0035872D03*
X0045250Y0057122D03*
X0045250Y0061497D03*
X0062750Y0088997D03*
X0089000Y0095247D03*
X0109000Y0096497D03*
X0122750Y0040247D03*
X0127750Y0040247D03*
D28*
X0136500Y0045872D03*
X0136500Y0056497D03*
X0110250Y0080247D03*
X0114000Y0082747D03*
X0117125Y0093997D03*
X0104000Y0091497D03*
X0094625Y0088997D03*
X0082750Y0088997D03*
X0072125Y0095872D03*
X0065875Y0100872D03*
X0060875Y0100247D03*
X0047125Y0093372D03*
X0047125Y0088372D03*
X0039625Y0083997D03*
X0044000Y0078997D03*
X0049625Y0079622D03*
X0040250Y0068372D03*
X0034625Y0073372D03*
X0029000Y0062747D03*
X0039625Y0052747D03*
X0059000Y0048372D03*
X0064000Y0044622D03*
X0060250Y0042122D03*
X0077750Y0032747D03*
X0099000Y0051497D03*
X0105250Y0058372D03*
X0106500Y0063997D03*
X0090250Y0068997D03*
X0082750Y0060247D03*
X0090250Y0057747D03*
X0074000Y0060247D03*
X0072750Y0064622D03*
X0072125Y0073997D03*
X0061500Y0075247D03*
X0089000Y0100247D03*
X0029000Y0085247D03*
D29*
X0040654Y0068372D02*
X0046500Y0074218D01*
X0051500Y0074218D01*
X0056500Y0074218D01*
X0055831Y0074887D02*
X0055831Y0080257D01*
X0057410Y0081836D02*
X0062750Y0087176D01*
X0062750Y0088997D01*
X0119000Y0053997D02*
X0123596Y0053997D01*
X0126500Y0054400D01*
X0126500Y0055247D02*
X0126500Y0060247D01*
X0128596Y0061497D02*
X0139625Y0061497D01*
D30*
X0067100Y0068072D02*
X0061500Y0068072D01*
X0061500Y0069218D01*
X0056500Y0074218D01*
X0061500Y0068072D02*
X0061500Y0065247D01*
X0064974Y0061772D01*
D31*
X0039000Y0038997D03*
X0034000Y0038997D03*
X0034000Y0033997D03*
X0039000Y0033997D03*
X0022750Y0036497D03*
X0019000Y0033997D03*
X0015250Y0036497D03*
X0015250Y0046497D03*
X0019000Y0048997D03*
X0022750Y0046497D03*
X0019000Y0103997D03*
X0022750Y0106497D03*
X0015250Y0106497D03*
X0015250Y0116497D03*
X0019000Y0118997D03*
X0022750Y0116497D03*
X0054000Y0108997D03*
X0059000Y0108997D03*
X0064000Y0108997D03*
X0134000Y0101497D03*
X0139000Y0101497D03*
X0139000Y0096497D03*
X0134000Y0096497D03*
M02*
