%
M48
M72
T01C0.01575
T02C0.01969
T03C0.02362
T04C0.03150
T05C0.04000
T06C0.08661
%
T01
X39625Y52747
X29000Y62747
X34625Y73372
X40250Y68372
X44000Y78997
X39625Y83997
X47125Y88372
X47125Y93372
X60875Y100247
X65875Y100872
X72125Y95872
X82750Y88997
X94625Y88997
X104000Y91497
X110250Y80247
X114000Y82747
X117125Y93997
X89000Y100247
X72125Y73997
X72750Y64622
X74000Y60247
X82750Y60247
X90250Y57747
X99000Y51497
X105250Y58372
X106500Y63997
X90250Y68997
X64000Y44622
X60250Y42122
X59000Y48372
X77750Y32747
X61500Y75247
X49625Y79622
X29000Y85247
X136500Y56497
X136500Y45872
T02
X127750Y40247
X122750Y40247
X97750Y40247
X97750Y35247
X75250Y40247
X59000Y35872
X45250Y57122
X45250Y61497
X62750Y88997
X89000Y95247
X109000Y96497
X124625Y83372
X129625Y77122
X134625Y77122
X139625Y77122
X129625Y67122
X107750Y70247
X94000Y65247
T03
X19000Y33997
X22750Y36497
X15250Y36497
X15250Y46497
X19000Y48997
X22750Y46497
X34000Y38997
X39000Y38997
X39000Y33997
X34000Y33997
X19000Y103997
X22750Y106497
X15250Y106497
X15250Y116497
X19000Y118997
X22750Y116497
X54000Y108997
X59000Y108997
X64000Y108997
X134000Y101497
X139000Y101497
X139000Y96497
X134000Y96497
T04
X119000Y73997
X119000Y63997
X119000Y53997
T05
X19000Y41497
X19000Y111497
T06
X139000Y118997
X139000Y33997
M30
