%
M48
M72
T01C0.01575
T02C0.02362
T03C0.03200
T04C0.03600
T05C0.04000
T06C0.04700
T07C0.11811
%
T01
X66776Y74395
X66776Y78332
X74650Y74395
X82524Y74395
X94335Y86206
X86067Y96049
X68350Y103135
X64807Y108253
X49059Y92112
X45122Y92112
X47091Y84238
X41185Y84238
X52996Y84238
X55358Y88175
X17563Y111797
X17563Y131482
X17563Y151167
X37248Y151167
X56933Y151167
X76618Y151167
X96303Y151167
X155358Y151167
X114020Y101954
X114020Y90143
X106146Y70458
X141579Y62190
X145516Y62190
X163232Y68489
X171106Y60615
X178980Y52741
X184492Y73608
X188429Y73608
X192366Y73608
X196303Y73608
X195122Y94474
X191185Y94474
X187248Y94474
X183311Y94474
X179374Y94474
X222287Y44867
X202602Y25182
T02
X145909Y42505
X143547Y45655
X141185Y42505
X108114Y61797
X153390Y74395
X178980Y73608
X134098Y132663
X106933Y146442
X68350Y111403
T03
X170043Y29119
X180043Y29119
X182917Y134356
X182917Y144356
X198665Y144356
X198665Y134356
T04
X16500Y49395
X16500Y59395
X26500Y59395
X26500Y49395
X26500Y69395
X26500Y79395
X26500Y89395
X16500Y89395
X16500Y79395
X16500Y69395
X16500Y99395
X26500Y99395
X100240Y103647
X100240Y113647
X100240Y123726
X100240Y133726
X125594Y108568
X135594Y108568
X145594Y108568
X161067Y124434
X161067Y134434
X161067Y144434
T05
X81264Y140419
X71264Y140419
X61264Y140419
X51264Y140419
X41264Y140419
X41264Y130419
X51264Y130419
X61264Y130419
X71264Y130419
X81264Y130419
T06
X93705Y31993
X113390Y31993
X133705Y31993
X153390Y31993
X213508Y58017
X213508Y77702
X213508Y98017
X213508Y117702
T07
X218350Y147230
X216382Y30300
M30
