G75*
%MOIN*%
%OFA0B0*%
%FSLAX25Y25*%
%IPPOS*%
%LPD*%
%AMOC8*
5,1,8,0,0,1.08239X$1,22.5*
%
%ADD10R,0.06299X0.07087*%
%ADD11R,0.07087X0.06299*%
%ADD12R,0.07008X0.01654*%
%ADD13R,0.05906X0.05118*%
%ADD14C,0.05600*%
%ADD15OC8,0.05200*%
%ADD16R,0.02362X0.07087*%
%ADD17R,0.04331X0.03937*%
%ADD18R,0.03937X0.04331*%
%ADD19C,0.05600*%
%ADD20OC8,0.05600*%
%ADD21OC8,0.06000*%
%ADD22R,0.01575X0.06299*%
%ADD23R,0.07441X0.06181*%
%ADD24C,0.07050*%
%ADD25C,0.01600*%
%ADD26C,0.03962*%
%ADD27C,0.03175*%
%ADD28C,0.01000*%
%ADD29C,0.04000*%
%ADD30C,0.03200*%
D10*
X0067563Y0094867D03*
X0078587Y0094867D03*
D11*
X0131736Y0097623D03*
X0139610Y0097623D03*
X0139610Y0086600D03*
X0131736Y0086600D03*
D12*
X0079453Y0102052D03*
X0079453Y0104612D03*
X0079453Y0107171D03*
X0079453Y0109730D03*
X0056067Y0109730D03*
X0056067Y0107171D03*
X0056067Y0104612D03*
X0056067Y0102052D03*
D13*
X0114807Y0075182D03*
X0114807Y0068489D03*
X0114807Y0061797D03*
D14*
X0103040Y0103647D02*
X0097440Y0103647D01*
X0097440Y0113647D02*
X0103040Y0113647D01*
X0103040Y0123726D02*
X0097440Y0123726D01*
X0097440Y0133726D02*
X0103040Y0133726D01*
X0125594Y0111368D02*
X0125594Y0105768D01*
X0135594Y0105768D02*
X0135594Y0111368D01*
X0145594Y0111368D02*
X0145594Y0105768D01*
X0158267Y0124434D02*
X0163867Y0124434D01*
X0163867Y0134434D02*
X0158267Y0134434D01*
X0158267Y0144434D02*
X0163867Y0144434D01*
D15*
X0182917Y0144356D03*
X0182917Y0134356D03*
X0198665Y0134356D03*
X0198665Y0144356D03*
X0180043Y0029119D03*
X0170043Y0029119D03*
D16*
X0179354Y0079513D03*
X0184354Y0079513D03*
X0189354Y0079513D03*
X0194354Y0079513D03*
X0194354Y0100773D03*
X0189354Y0100773D03*
X0184354Y0100773D03*
X0179354Y0100773D03*
D17*
X0147484Y0091521D03*
X0147484Y0084828D03*
X0123862Y0084828D03*
X0123862Y0091521D03*
X0121500Y0138962D03*
X0114413Y0138962D03*
X0114413Y0145655D03*
X0121500Y0145655D03*
X0045909Y0106482D03*
X0039610Y0103726D03*
X0045909Y0099789D03*
X0039610Y0110419D03*
D18*
X0068941Y0115734D03*
X0075634Y0115734D03*
X0072878Y0121639D03*
X0079571Y0121639D03*
X0079965Y0086993D03*
X0073272Y0086993D03*
X0126421Y0079119D03*
X0133114Y0079119D03*
X0138232Y0079119D03*
X0144925Y0079119D03*
D19*
X0026500Y0049395D03*
D20*
X0026500Y0059395D03*
X0016500Y0059395D03*
X0016500Y0049395D03*
X0016500Y0069395D03*
X0016500Y0079395D03*
X0016500Y0089395D03*
X0026500Y0089395D03*
X0026500Y0079395D03*
X0026500Y0069395D03*
X0026500Y0099395D03*
X0016500Y0099395D03*
D21*
X0041264Y0130419D03*
X0051264Y0130419D03*
X0061264Y0130419D03*
X0071264Y0130419D03*
X0081264Y0130419D03*
X0081264Y0140419D03*
X0071264Y0140419D03*
X0061264Y0140419D03*
X0051264Y0140419D03*
X0041264Y0140419D03*
D22*
X0139709Y0068883D03*
X0142268Y0068883D03*
X0144827Y0068883D03*
X0147386Y0068883D03*
X0147386Y0052348D03*
X0144827Y0052348D03*
X0142268Y0052348D03*
X0139709Y0052348D03*
D23*
X0143547Y0060615D03*
D24*
X0133705Y0035518D02*
X0133705Y0028468D01*
X0113390Y0028468D02*
X0113390Y0035518D01*
X0093705Y0035518D02*
X0093705Y0028468D01*
X0153390Y0028468D02*
X0153390Y0035518D01*
X0209983Y0058017D02*
X0217033Y0058017D01*
X0217033Y0077702D02*
X0209983Y0077702D01*
X0209983Y0098017D02*
X0217033Y0098017D01*
X0217033Y0117702D02*
X0209983Y0117702D01*
D25*
X0202602Y0118015D02*
X0222287Y0118015D01*
X0222287Y0119613D02*
X0202602Y0119613D01*
X0202602Y0121212D02*
X0222287Y0121212D01*
X0222287Y0122810D02*
X0202602Y0122810D01*
X0202602Y0123608D02*
X0222287Y0123608D01*
X0222287Y0116127D01*
X0202602Y0116127D01*
X0202602Y0123608D01*
X0202602Y0116416D02*
X0222287Y0116416D01*
X0179354Y0079513D02*
X0178980Y0079139D01*
X0178980Y0073608D01*
X0153390Y0074395D02*
X0145909Y0074395D01*
X0144827Y0073312D01*
X0144827Y0068883D01*
X0142268Y0068883D02*
X0142268Y0075084D01*
X0138232Y0079119D01*
X0133114Y0079119D01*
X0126421Y0079119D02*
X0123862Y0081678D01*
X0123862Y0084828D01*
X0126815Y0091521D02*
X0131736Y0086600D01*
X0126815Y0091521D02*
X0123862Y0091521D01*
X0131736Y0097623D02*
X0125594Y0103765D01*
X0125594Y0108568D01*
X0139610Y0097623D02*
X0145594Y0103608D01*
X0145594Y0108568D01*
X0144531Y0091521D02*
X0147484Y0091521D01*
X0144531Y0091521D02*
X0139610Y0086600D01*
X0147484Y0084828D02*
X0147484Y0081678D01*
X0144925Y0079119D01*
X0144827Y0060615D02*
X0143547Y0060615D01*
X0144827Y0060615D02*
X0144827Y0052348D01*
X0119925Y0040930D02*
X0119925Y0022108D01*
X0108114Y0022108D01*
X0108114Y0040930D01*
X0119925Y0040930D01*
X0119925Y0039688D02*
X0108114Y0039688D01*
X0108114Y0038089D02*
X0119925Y0038089D01*
X0119925Y0036491D02*
X0108114Y0036491D01*
X0108114Y0034892D02*
X0119925Y0034892D01*
X0119925Y0033293D02*
X0108114Y0033293D01*
X0108114Y0031695D02*
X0119925Y0031695D01*
X0119925Y0030096D02*
X0108114Y0030096D01*
X0108114Y0028498D02*
X0119925Y0028498D01*
X0119925Y0026899D02*
X0108114Y0026899D01*
X0108114Y0025301D02*
X0119925Y0025301D01*
X0119925Y0023702D02*
X0108114Y0023702D01*
X0037248Y0060143D02*
X0037248Y0092112D01*
X0044925Y0099789D01*
X0045909Y0099789D01*
X0043547Y0099789D01*
X0039610Y0103726D01*
X0036461Y0107072D02*
X0043547Y0107072D01*
X0044138Y0106482D01*
X0045909Y0106482D01*
X0046598Y0107171D01*
X0056067Y0107171D01*
X0056067Y0109730D02*
X0049945Y0109730D01*
X0049256Y0110419D01*
X0039610Y0110419D01*
X0035476Y0110419D01*
X0031736Y0106678D01*
X0031736Y0077545D01*
X0028587Y0074395D01*
X0024650Y0074395D01*
X0021894Y0071639D01*
X0021894Y0066915D01*
X0026500Y0062308D01*
X0026500Y0059395D01*
X0022866Y0062266D02*
X0021900Y0061300D01*
X0021900Y0060615D01*
X0021100Y0060615D01*
X0021100Y0061300D01*
X0018405Y0063995D01*
X0014595Y0063995D01*
X0014489Y0063889D01*
X0014489Y0074901D01*
X0014595Y0074795D01*
X0018405Y0074795D01*
X0021100Y0077490D01*
X0021100Y0081300D01*
X0018405Y0083995D01*
X0014595Y0083995D01*
X0014489Y0083889D01*
X0014489Y0084901D01*
X0014595Y0084795D01*
X0018405Y0084795D01*
X0021100Y0087490D01*
X0021100Y0091300D01*
X0018405Y0093995D01*
X0014595Y0093995D01*
X0014489Y0093889D01*
X0014489Y0094901D01*
X0014595Y0094795D01*
X0018405Y0094795D01*
X0021100Y0097490D01*
X0021100Y0101300D01*
X0018478Y0103923D01*
X0024522Y0103923D01*
X0021900Y0101300D01*
X0021900Y0097490D01*
X0024595Y0094795D01*
X0028405Y0094795D01*
X0029136Y0095526D01*
X0029136Y0083264D01*
X0028405Y0083995D01*
X0024595Y0083995D01*
X0021900Y0081300D01*
X0021900Y0077490D01*
X0022984Y0076406D01*
X0022445Y0075868D01*
X0020421Y0073843D01*
X0019690Y0073112D01*
X0019294Y0072156D01*
X0019294Y0066397D01*
X0019690Y0065442D01*
X0022866Y0062266D01*
X0022666Y0062067D02*
X0020334Y0062067D01*
X0021466Y0063665D02*
X0018735Y0063665D01*
X0019868Y0065264D02*
X0014489Y0065264D01*
X0014489Y0066862D02*
X0019294Y0066862D01*
X0019294Y0068461D02*
X0014489Y0068461D01*
X0014489Y0070059D02*
X0019294Y0070059D01*
X0019294Y0071658D02*
X0014489Y0071658D01*
X0014489Y0073256D02*
X0019834Y0073256D01*
X0018465Y0074855D02*
X0021432Y0074855D01*
X0020064Y0076453D02*
X0022936Y0076453D01*
X0021900Y0078052D02*
X0021100Y0078052D01*
X0021100Y0079650D02*
X0021900Y0079650D01*
X0021900Y0081249D02*
X0021100Y0081249D01*
X0019553Y0082847D02*
X0023447Y0082847D01*
X0019655Y0086044D02*
X0029136Y0086044D01*
X0029136Y0084446D02*
X0014489Y0084446D01*
X0021100Y0087643D02*
X0029136Y0087643D01*
X0029136Y0089241D02*
X0021100Y0089241D01*
X0021100Y0090840D02*
X0029136Y0090840D01*
X0029136Y0092438D02*
X0019962Y0092438D01*
X0019246Y0095635D02*
X0023754Y0095635D01*
X0022156Y0097234D02*
X0020844Y0097234D01*
X0021100Y0098832D02*
X0021900Y0098832D01*
X0021900Y0100431D02*
X0021100Y0100431D01*
X0020371Y0102029D02*
X0022629Y0102029D01*
X0024228Y0103628D02*
X0018772Y0103628D01*
X0014489Y0094037D02*
X0029136Y0094037D01*
X0034492Y0105104D02*
X0036461Y0107072D01*
X0034492Y0105104D02*
X0034492Y0076363D01*
X0027524Y0069395D01*
X0026500Y0069395D01*
X0014535Y0074855D02*
X0014489Y0074855D01*
X0037248Y0060143D02*
X0026500Y0049395D01*
X0073075Y0087190D02*
X0073075Y0105104D01*
X0068350Y0109828D01*
X0068350Y0111403D01*
X0073862Y0113962D02*
X0073862Y0108647D01*
X0075339Y0107171D01*
X0079453Y0107171D01*
X0079453Y0109730D02*
X0079571Y0109848D01*
X0079571Y0121639D01*
X0081343Y0121639D01*
X0086854Y0127151D01*
X0086854Y0134828D01*
X0081264Y0140419D01*
X0076224Y0135458D02*
X0071264Y0140419D01*
X0076224Y0135458D02*
X0076224Y0116324D01*
X0075634Y0115734D01*
X0073862Y0113962D01*
X0079453Y0104612D02*
X0079453Y0102052D01*
X0079453Y0096127D01*
X0078587Y0094867D01*
X0079965Y0093883D01*
X0079965Y0086993D01*
X0073272Y0086993D02*
X0073075Y0087190D01*
X0086067Y0096049D02*
X0086067Y0113371D01*
X0084886Y0114552D01*
X0084886Y0118489D01*
X0090004Y0123608D01*
X0090004Y0134238D01*
X0095122Y0139356D01*
X0099059Y0139356D01*
X0106146Y0146442D01*
X0106933Y0146442D01*
X0107720Y0145655D01*
X0114413Y0145655D01*
X0121500Y0145655D01*
X0121500Y0138962D02*
X0127799Y0138962D01*
X0134098Y0132663D01*
X0114413Y0138962D02*
X0105083Y0138962D01*
X0100240Y0133726D01*
X0068350Y0103135D02*
X0066874Y0104612D01*
X0056067Y0104612D01*
X0050732Y0104612D01*
X0045909Y0099789D01*
X0202602Y0060615D02*
X0202602Y0052741D01*
X0222287Y0052741D01*
X0222287Y0060615D01*
X0202602Y0060615D01*
X0202602Y0060468D02*
X0222287Y0060468D01*
X0222287Y0058870D02*
X0202602Y0058870D01*
X0202602Y0057271D02*
X0222287Y0057271D01*
X0222287Y0055673D02*
X0202602Y0055673D01*
X0202602Y0054074D02*
X0222287Y0054074D01*
D26*
X0178980Y0073608D03*
X0153390Y0074395D03*
X0143547Y0045655D03*
X0141185Y0042505D03*
X0145909Y0042505D03*
X0108114Y0061797D03*
X0068350Y0111403D03*
X0106933Y0146442D03*
X0134098Y0132663D03*
D27*
X0155358Y0151167D03*
X0096303Y0151167D03*
X0076618Y0151167D03*
X0056933Y0151167D03*
X0037248Y0151167D03*
X0017563Y0151167D03*
X0017563Y0131482D03*
X0017563Y0111797D03*
X0045122Y0092112D03*
X0049059Y0092112D03*
X0055358Y0088175D03*
X0052996Y0084238D03*
X0047091Y0084238D03*
X0041185Y0084238D03*
X0066776Y0078332D03*
X0066776Y0074395D03*
X0074650Y0074395D03*
X0082524Y0074395D03*
X0094335Y0086206D03*
X0086067Y0096049D03*
X0068350Y0103135D03*
X0064807Y0108253D03*
X0114020Y0101954D03*
X0114020Y0090143D03*
X0106146Y0070458D03*
X0141579Y0062190D03*
X0145516Y0062190D03*
X0163232Y0068489D03*
X0171106Y0060615D03*
X0178980Y0052741D03*
X0184492Y0073608D03*
X0188429Y0073608D03*
X0192366Y0073608D03*
X0196303Y0073608D03*
X0195122Y0094474D03*
X0191185Y0094474D03*
X0187248Y0094474D03*
X0183311Y0094474D03*
X0179374Y0094474D03*
X0222287Y0044867D03*
X0202602Y0025182D03*
D28*
X0014189Y0021808D02*
X0014189Y0045625D01*
X0014719Y0045095D01*
X0018281Y0045095D01*
X0020800Y0047614D01*
X0020800Y0051176D01*
X0018281Y0053695D01*
X0014719Y0053695D01*
X0014189Y0053165D01*
X0014189Y0055625D01*
X0014719Y0055095D01*
X0018281Y0055095D01*
X0020800Y0057614D01*
X0020800Y0061176D01*
X0018281Y0063695D01*
X0014719Y0063695D01*
X0014189Y0063165D01*
X0014189Y0065625D01*
X0014719Y0065095D01*
X0016100Y0065095D01*
X0016100Y0068995D01*
X0016900Y0068995D01*
X0016900Y0065095D01*
X0018281Y0065095D01*
X0019594Y0066408D01*
X0019594Y0065962D01*
X0023290Y0062266D01*
X0022200Y0061176D01*
X0022200Y0057614D01*
X0024719Y0055095D01*
X0028281Y0055095D01*
X0030800Y0057614D01*
X0030800Y0061176D01*
X0028800Y0063176D01*
X0028800Y0063261D01*
X0027453Y0064608D01*
X0026966Y0065095D01*
X0028281Y0065095D01*
X0030800Y0067614D01*
X0030800Y0069419D01*
X0034948Y0073567D01*
X0034948Y0061096D01*
X0027491Y0053639D01*
X0027355Y0053695D01*
X0025645Y0053695D01*
X0024064Y0053040D01*
X0022855Y0051831D01*
X0022200Y0050250D01*
X0022200Y0048540D01*
X0022855Y0046959D01*
X0024064Y0045750D01*
X0025645Y0045095D01*
X0027355Y0045095D01*
X0028936Y0045750D01*
X0030145Y0046959D01*
X0030800Y0048540D01*
X0030800Y0050250D01*
X0030744Y0050386D01*
X0038201Y0057843D01*
X0039548Y0059190D01*
X0039548Y0091159D01*
X0044709Y0096320D01*
X0048696Y0096320D01*
X0049575Y0097199D01*
X0049575Y0100201D01*
X0051063Y0101690D01*
X0051063Y0101028D01*
X0051165Y0100647D01*
X0051363Y0100305D01*
X0051642Y0100025D01*
X0051984Y0099828D01*
X0052366Y0099726D01*
X0056067Y0099726D01*
X0059768Y0099726D01*
X0060150Y0099828D01*
X0060492Y0100025D01*
X0060771Y0100305D01*
X0060969Y0100647D01*
X0061071Y0101028D01*
X0061071Y0102052D01*
X0056067Y0102052D01*
X0056067Y0099726D01*
X0056067Y0102052D01*
X0056067Y0102052D01*
X0056067Y0102053D01*
X0061071Y0102053D01*
X0061071Y0102312D01*
X0065350Y0102312D01*
X0065733Y0101386D01*
X0066602Y0100518D01*
X0067736Y0100048D01*
X0068965Y0100048D01*
X0070099Y0100518D01*
X0070775Y0101193D01*
X0070775Y0099911D01*
X0068063Y0099911D01*
X0068063Y0095367D01*
X0067063Y0095367D01*
X0067063Y0094367D01*
X0068063Y0094367D01*
X0068063Y0089824D01*
X0069847Y0089824D01*
X0069803Y0089780D01*
X0069803Y0084826D01*
X0066817Y0087812D01*
X0058549Y0087812D01*
X0058446Y0087916D01*
X0058446Y0088789D01*
X0057976Y0089923D01*
X0057107Y0090792D01*
X0055972Y0091262D01*
X0054744Y0091262D01*
X0053609Y0090792D01*
X0052741Y0089923D01*
X0052271Y0088789D01*
X0052271Y0087560D01*
X0052741Y0086426D01*
X0053609Y0085557D01*
X0054744Y0085087D01*
X0055617Y0085087D01*
X0055720Y0084984D01*
X0056892Y0083812D01*
X0065160Y0083812D01*
X0067138Y0081834D01*
X0068309Y0080663D01*
X0082958Y0080663D01*
X0090439Y0088143D01*
X0091610Y0089315D01*
X0091610Y0097582D01*
X0094517Y0100489D01*
X0095004Y0100002D01*
X0096585Y0099347D01*
X0103895Y0099347D01*
X0105476Y0100002D01*
X0106686Y0101211D01*
X0107340Y0102792D01*
X0107340Y0104502D01*
X0106686Y0106083D01*
X0105476Y0107292D01*
X0103895Y0107947D01*
X0096585Y0107947D01*
X0095004Y0107292D01*
X0093795Y0106083D01*
X0093329Y0104958D01*
X0092846Y0104475D01*
X0088367Y0099996D01*
X0088367Y0114324D01*
X0087186Y0115505D01*
X0087186Y0117537D01*
X0092304Y0122655D01*
X0092304Y0133285D01*
X0093140Y0134121D01*
X0093140Y0132870D01*
X0093795Y0131290D01*
X0095004Y0130080D01*
X0096585Y0129426D01*
X0103895Y0129426D01*
X0105476Y0130080D01*
X0106686Y0131290D01*
X0107340Y0132870D01*
X0107340Y0134581D01*
X0106686Y0136161D01*
X0106185Y0136662D01*
X0110748Y0136662D01*
X0110748Y0136372D01*
X0111627Y0135493D01*
X0117200Y0135493D01*
X0117957Y0136250D01*
X0118713Y0135493D01*
X0124287Y0135493D01*
X0125165Y0136372D01*
X0125165Y0136662D01*
X0126847Y0136662D01*
X0130617Y0132891D01*
X0130617Y0131970D01*
X0131147Y0130691D01*
X0132127Y0129712D01*
X0133406Y0129182D01*
X0134791Y0129182D01*
X0136070Y0129712D01*
X0137050Y0130691D01*
X0137580Y0131970D01*
X0137580Y0133355D01*
X0137050Y0134635D01*
X0136070Y0135614D01*
X0134791Y0136144D01*
X0133870Y0136144D01*
X0128752Y0141262D01*
X0125165Y0141262D01*
X0125165Y0141552D01*
X0124409Y0142308D01*
X0125165Y0143065D01*
X0125165Y0148245D01*
X0124287Y0149123D01*
X0118713Y0149123D01*
X0117957Y0148367D01*
X0117200Y0149123D01*
X0111627Y0149123D01*
X0110748Y0148245D01*
X0110748Y0147955D01*
X0110074Y0147955D01*
X0109884Y0148414D01*
X0108905Y0149393D01*
X0107626Y0149923D01*
X0106241Y0149923D01*
X0104961Y0149393D01*
X0103982Y0148414D01*
X0103452Y0147135D01*
X0103452Y0147001D01*
X0098106Y0141656D01*
X0094169Y0141656D01*
X0089051Y0136537D01*
X0088724Y0136211D01*
X0085764Y0139171D01*
X0085764Y0142283D01*
X0083128Y0144919D01*
X0079400Y0144919D01*
X0076764Y0142283D01*
X0076764Y0138555D01*
X0079400Y0135919D01*
X0082511Y0135919D01*
X0084554Y0133875D01*
X0084554Y0133492D01*
X0083128Y0134919D01*
X0079400Y0134919D01*
X0078524Y0134043D01*
X0078524Y0136411D01*
X0075764Y0139171D01*
X0075764Y0142283D01*
X0073128Y0144919D01*
X0069400Y0144919D01*
X0066764Y0142283D01*
X0066764Y0138555D01*
X0069400Y0135919D01*
X0072511Y0135919D01*
X0073924Y0134505D01*
X0073924Y0134122D01*
X0073128Y0134919D01*
X0069400Y0134919D01*
X0066764Y0132283D01*
X0066764Y0128555D01*
X0067764Y0127555D01*
X0067764Y0122557D01*
X0068081Y0121792D01*
X0066958Y0120669D01*
X0065974Y0119685D01*
X0065505Y0118553D01*
X0065472Y0118520D01*
X0065472Y0118474D01*
X0065441Y0118398D01*
X0065441Y0113443D01*
X0065383Y0113385D01*
X0065262Y0113092D01*
X0062179Y0110009D01*
X0061707Y0108870D01*
X0061707Y0107637D01*
X0062007Y0106912D01*
X0061071Y0106912D01*
X0061071Y0111178D01*
X0060192Y0112056D01*
X0051942Y0112056D01*
X0051915Y0112030D01*
X0050898Y0112030D01*
X0050209Y0112719D01*
X0043276Y0112719D01*
X0043276Y0113008D01*
X0042397Y0113887D01*
X0036824Y0113887D01*
X0035945Y0113008D01*
X0035945Y0112719D01*
X0034524Y0112719D01*
X0033176Y0111371D01*
X0029436Y0107631D01*
X0029436Y0102540D01*
X0028281Y0103695D01*
X0024719Y0103695D01*
X0022200Y0101176D01*
X0022200Y0097614D01*
X0024719Y0095095D01*
X0028281Y0095095D01*
X0029436Y0096250D01*
X0029436Y0092540D01*
X0028281Y0093695D01*
X0026900Y0093695D01*
X0026900Y0089795D01*
X0026100Y0089795D01*
X0026100Y0093695D01*
X0024719Y0093695D01*
X0022200Y0091176D01*
X0022200Y0089795D01*
X0026100Y0089795D01*
X0026100Y0088995D01*
X0022200Y0088995D01*
X0022200Y0087614D01*
X0024719Y0085095D01*
X0026100Y0085095D01*
X0026100Y0088995D01*
X0026900Y0088995D01*
X0026900Y0085095D01*
X0028281Y0085095D01*
X0029436Y0086250D01*
X0029436Y0082540D01*
X0028281Y0083695D01*
X0024719Y0083695D01*
X0022200Y0081176D01*
X0022200Y0077614D01*
X0023408Y0076406D01*
X0022350Y0075348D01*
X0020941Y0073939D01*
X0019594Y0072592D01*
X0019594Y0072382D01*
X0018281Y0073695D01*
X0016900Y0073695D01*
X0016900Y0069795D01*
X0016100Y0069795D01*
X0016100Y0073695D01*
X0014719Y0073695D01*
X0014189Y0073165D01*
X0014189Y0075625D01*
X0014719Y0075095D01*
X0018281Y0075095D01*
X0020800Y0077614D01*
X0020800Y0081176D01*
X0018281Y0083695D01*
X0014719Y0083695D01*
X0014189Y0083165D01*
X0014189Y0085625D01*
X0014719Y0085095D01*
X0018281Y0085095D01*
X0020800Y0087614D01*
X0020800Y0091176D01*
X0018281Y0093695D01*
X0014719Y0093695D01*
X0014189Y0093165D01*
X0014189Y0095625D01*
X0014719Y0095095D01*
X0018281Y0095095D01*
X0020800Y0097614D01*
X0020800Y0101176D01*
X0018281Y0103695D01*
X0014719Y0103695D01*
X0014189Y0103165D01*
X0014189Y0154541D01*
X0210946Y0154541D01*
X0210024Y0153619D01*
X0208654Y0151246D01*
X0207945Y0148600D01*
X0207945Y0145860D01*
X0208654Y0143213D01*
X0210024Y0140840D01*
X0211961Y0138903D01*
X0214334Y0137533D01*
X0216980Y0136824D01*
X0219720Y0136824D01*
X0222367Y0137533D01*
X0224740Y0138903D01*
X0225661Y0139825D01*
X0225661Y0115734D01*
X0221670Y0115734D01*
X0221690Y0115773D01*
X0221934Y0116525D01*
X0222041Y0117202D01*
X0214008Y0117202D01*
X0214008Y0118202D01*
X0222041Y0118202D01*
X0221934Y0118879D01*
X0221690Y0119631D01*
X0221331Y0120336D01*
X0220866Y0120976D01*
X0220306Y0121535D01*
X0219667Y0122000D01*
X0218962Y0122359D01*
X0218210Y0122603D01*
X0217428Y0122727D01*
X0214008Y0122727D01*
X0214008Y0118202D01*
X0213008Y0118202D01*
X0213008Y0122727D01*
X0209587Y0122727D01*
X0208806Y0122603D01*
X0208054Y0122359D01*
X0207349Y0122000D01*
X0206709Y0121535D01*
X0206150Y0120976D01*
X0205685Y0120336D01*
X0205326Y0119631D01*
X0205082Y0118879D01*
X0204974Y0118202D01*
X0213008Y0118202D01*
X0213008Y0117202D01*
X0204974Y0117202D01*
X0205082Y0116525D01*
X0205326Y0115773D01*
X0205346Y0115734D01*
X0171106Y0115734D01*
X0167169Y0111797D01*
X0167169Y0088175D01*
X0175043Y0080300D01*
X0175043Y0068489D01*
X0182917Y0060615D01*
X0205667Y0060615D01*
X0205326Y0059946D01*
X0205082Y0059194D01*
X0204974Y0058517D01*
X0213008Y0058517D01*
X0213008Y0057517D01*
X0214008Y0057517D01*
X0214008Y0058517D01*
X0222041Y0058517D01*
X0221934Y0059194D01*
X0221690Y0059946D01*
X0221349Y0060615D01*
X0225661Y0060615D01*
X0225661Y0035039D01*
X0224708Y0036690D01*
X0222771Y0038627D01*
X0220398Y0039997D01*
X0217752Y0040706D01*
X0215012Y0040706D01*
X0212366Y0039997D01*
X0209993Y0038627D01*
X0208055Y0036690D01*
X0206685Y0034317D01*
X0205976Y0031670D01*
X0205976Y0028931D01*
X0206685Y0026284D01*
X0208055Y0023911D01*
X0209993Y0021974D01*
X0210280Y0021808D01*
X0163232Y0021808D01*
X0163232Y0048804D01*
X0154177Y0057860D01*
X0148768Y0057860D01*
X0148768Y0060115D01*
X0144047Y0060115D01*
X0144047Y0061115D01*
X0148768Y0061115D01*
X0148768Y0063903D01*
X0148665Y0064285D01*
X0148652Y0064309D01*
X0148752Y0064336D01*
X0149094Y0064533D01*
X0149374Y0064813D01*
X0149571Y0065155D01*
X0149673Y0065536D01*
X0149673Y0068883D01*
X0147386Y0068883D01*
X0147386Y0068883D01*
X0149673Y0068883D01*
X0149673Y0072095D01*
X0150767Y0072095D01*
X0151418Y0071444D01*
X0151421Y0071442D01*
X0151421Y0057860D01*
X0135673Y0057860D01*
X0135673Y0066883D01*
X0137421Y0066883D01*
X0137421Y0065112D01*
X0138300Y0064234D01*
X0146235Y0064234D01*
X0147114Y0065112D01*
X0147114Y0067918D01*
X0147127Y0067930D01*
X0147127Y0072095D01*
X0150767Y0072095D01*
X0151418Y0071444D01*
X0152697Y0070914D01*
X0154082Y0070914D01*
X0155362Y0071444D01*
X0156341Y0072423D01*
X0156871Y0073703D01*
X0156871Y0075087D01*
X0156341Y0076367D01*
X0155362Y0077346D01*
X0154082Y0077876D01*
X0152697Y0077876D01*
X0151418Y0077346D01*
X0150767Y0076695D01*
X0148394Y0076695D01*
X0148394Y0079335D01*
X0148437Y0079378D01*
X0149784Y0080726D01*
X0149784Y0081360D01*
X0150271Y0081360D01*
X0151150Y0082238D01*
X0151150Y0087418D01*
X0150393Y0088174D01*
X0151150Y0088931D01*
X0151150Y0094111D01*
X0150271Y0094989D01*
X0144698Y0094989D01*
X0144654Y0094945D01*
X0144654Y0099414D01*
X0146547Y0101308D01*
X0146890Y0101651D01*
X0148030Y0102123D01*
X0149240Y0103332D01*
X0149894Y0104913D01*
X0149894Y0112224D01*
X0149240Y0113804D01*
X0148030Y0115014D01*
X0146450Y0115668D01*
X0144739Y0115668D01*
X0143159Y0115014D01*
X0141949Y0113804D01*
X0141294Y0112224D01*
X0141294Y0104913D01*
X0141949Y0103332D01*
X0142008Y0103274D01*
X0141007Y0102273D01*
X0138099Y0102273D01*
X0138396Y0102488D01*
X0138874Y0102967D01*
X0139272Y0103515D01*
X0139579Y0104118D01*
X0139789Y0104761D01*
X0139894Y0105430D01*
X0139894Y0108168D01*
X0135995Y0108168D01*
X0135995Y0108968D01*
X0139894Y0108968D01*
X0139894Y0111707D01*
X0139789Y0112375D01*
X0139579Y0113019D01*
X0139272Y0113622D01*
X0138874Y0114169D01*
X0138396Y0114648D01*
X0137848Y0115046D01*
X0137245Y0115353D01*
X0136601Y0115562D01*
X0135994Y0115658D01*
X0135994Y0108968D01*
X0135194Y0108968D01*
X0135194Y0108168D01*
X0131294Y0108168D01*
X0131294Y0105430D01*
X0131400Y0104761D01*
X0131610Y0104118D01*
X0131917Y0103515D01*
X0132315Y0102967D01*
X0132793Y0102488D01*
X0133090Y0102273D01*
X0130339Y0102273D01*
X0129252Y0103361D01*
X0129894Y0104913D01*
X0129894Y0112224D01*
X0129240Y0113804D01*
X0128030Y0115014D01*
X0126450Y0115668D01*
X0124739Y0115668D01*
X0123159Y0115014D01*
X0121949Y0113804D01*
X0121294Y0112224D01*
X0121294Y0104913D01*
X0121949Y0103332D01*
X0123159Y0102123D01*
X0124568Y0101539D01*
X0124642Y0101465D01*
X0126693Y0099414D01*
X0126693Y0094945D01*
X0126649Y0094989D01*
X0121076Y0094989D01*
X0120197Y0094111D01*
X0120197Y0088931D01*
X0120953Y0088174D01*
X0120197Y0087418D01*
X0120197Y0082238D01*
X0121076Y0081360D01*
X0121562Y0081360D01*
X0121562Y0080726D01*
X0122910Y0079378D01*
X0122953Y0079335D01*
X0122953Y0076333D01*
X0123831Y0075454D01*
X0129011Y0075454D01*
X0129768Y0076211D01*
X0130524Y0075454D01*
X0138645Y0075454D01*
X0139968Y0074131D01*
X0139968Y0073533D01*
X0138300Y0073533D01*
X0137421Y0072654D01*
X0137421Y0070883D01*
X0119260Y0070883D01*
X0119260Y0071670D01*
X0119058Y0071872D01*
X0119158Y0072044D01*
X0119260Y0072426D01*
X0119260Y0074682D01*
X0115307Y0074682D01*
X0115307Y0075682D01*
X0119260Y0075682D01*
X0119260Y0077939D01*
X0119158Y0078320D01*
X0118960Y0078662D01*
X0118681Y0078942D01*
X0118339Y0079139D01*
X0117957Y0079241D01*
X0115307Y0079241D01*
X0115307Y0075682D01*
X0114307Y0075682D01*
X0114307Y0074682D01*
X0110354Y0074682D01*
X0110354Y0072426D01*
X0110457Y0072044D01*
X0110556Y0071872D01*
X0110354Y0071670D01*
X0110354Y0065309D01*
X0110520Y0065143D01*
X0110354Y0064977D01*
X0110354Y0064479D01*
X0110086Y0064748D01*
X0108807Y0065278D01*
X0107422Y0065278D01*
X0106142Y0064748D01*
X0105163Y0063768D01*
X0104633Y0062489D01*
X0104633Y0061104D01*
X0105163Y0059825D01*
X0106142Y0058845D01*
X0107422Y0058315D01*
X0108807Y0058315D01*
X0110086Y0058845D01*
X0110354Y0059114D01*
X0110354Y0058616D01*
X0111233Y0057737D01*
X0118381Y0057737D01*
X0119260Y0058616D01*
X0119260Y0064977D01*
X0119094Y0065143D01*
X0119260Y0065309D01*
X0119260Y0066883D01*
X0137421Y0066883D01*
X0137421Y0065112D01*
X0138300Y0064234D01*
X0138415Y0064234D01*
X0138327Y0063903D01*
X0138327Y0061115D01*
X0143047Y0061115D01*
X0143047Y0060115D01*
X0138327Y0060115D01*
X0138327Y0057860D01*
X0133311Y0057860D01*
X0123862Y0048804D01*
X0123862Y0021808D01*
X0014189Y0021808D01*
X0014189Y0022301D02*
X0123862Y0022301D01*
X0123862Y0023299D02*
X0014189Y0023299D01*
X0014189Y0024298D02*
X0090769Y0024298D01*
X0090858Y0024208D02*
X0089445Y0025622D01*
X0088680Y0027469D01*
X0088680Y0036518D01*
X0089445Y0038365D01*
X0090858Y0039778D01*
X0092705Y0040543D01*
X0094704Y0040543D01*
X0096551Y0039778D01*
X0097965Y0038365D01*
X0098730Y0036518D01*
X0098730Y0027469D01*
X0097965Y0025622D01*
X0096551Y0024208D01*
X0094704Y0023443D01*
X0092705Y0023443D01*
X0090858Y0024208D01*
X0089770Y0025296D02*
X0014189Y0025296D01*
X0014189Y0026295D02*
X0089166Y0026295D01*
X0088752Y0027293D02*
X0014189Y0027293D01*
X0014189Y0028292D02*
X0088680Y0028292D01*
X0088680Y0029291D02*
X0014189Y0029291D01*
X0014189Y0030289D02*
X0088680Y0030289D01*
X0088680Y0031288D02*
X0014189Y0031288D01*
X0014189Y0032286D02*
X0088680Y0032286D01*
X0088680Y0033285D02*
X0014189Y0033285D01*
X0014189Y0034283D02*
X0088680Y0034283D01*
X0088680Y0035282D02*
X0014189Y0035282D01*
X0014189Y0036280D02*
X0088680Y0036280D01*
X0088995Y0037279D02*
X0014189Y0037279D01*
X0014189Y0038277D02*
X0089408Y0038277D01*
X0090356Y0039276D02*
X0014189Y0039276D01*
X0014189Y0040274D02*
X0092055Y0040274D01*
X0095354Y0040274D02*
X0111765Y0040274D01*
X0111461Y0040175D02*
X0110756Y0039816D01*
X0110116Y0039351D01*
X0109557Y0038792D01*
X0109092Y0038152D01*
X0108733Y0037447D01*
X0108488Y0036695D01*
X0108365Y0035914D01*
X0108365Y0032493D01*
X0112890Y0032493D01*
X0112890Y0031493D01*
X0113890Y0031493D01*
X0113890Y0023460D01*
X0114566Y0023567D01*
X0115319Y0023812D01*
X0116023Y0024171D01*
X0116663Y0024636D01*
X0117223Y0025195D01*
X0117688Y0025835D01*
X0118047Y0026539D01*
X0118291Y0027292D01*
X0118415Y0028073D01*
X0118415Y0031493D01*
X0113890Y0031493D01*
X0113890Y0032493D01*
X0118415Y0032493D01*
X0118415Y0035914D01*
X0118291Y0036695D01*
X0118047Y0037447D01*
X0117688Y0038152D01*
X0117223Y0038792D01*
X0116663Y0039351D01*
X0116023Y0039816D01*
X0115319Y0040175D01*
X0114566Y0040420D01*
X0113890Y0040527D01*
X0113890Y0032493D01*
X0112890Y0032493D01*
X0112890Y0040527D01*
X0112213Y0040420D01*
X0111461Y0040175D01*
X0112890Y0040274D02*
X0113890Y0040274D01*
X0113890Y0039276D02*
X0112890Y0039276D01*
X0112890Y0038277D02*
X0113890Y0038277D01*
X0113890Y0037279D02*
X0112890Y0037279D01*
X0112890Y0036280D02*
X0113890Y0036280D01*
X0113890Y0035282D02*
X0112890Y0035282D01*
X0112890Y0034283D02*
X0113890Y0034283D01*
X0113890Y0033285D02*
X0112890Y0033285D01*
X0112890Y0032286D02*
X0098730Y0032286D01*
X0098730Y0031288D02*
X0108365Y0031288D01*
X0108365Y0031493D02*
X0108365Y0028073D01*
X0108488Y0027292D01*
X0108733Y0026539D01*
X0109092Y0025835D01*
X0109557Y0025195D01*
X0110116Y0024636D01*
X0110756Y0024171D01*
X0111461Y0023812D01*
X0112213Y0023567D01*
X0112890Y0023460D01*
X0112890Y0031493D01*
X0108365Y0031493D01*
X0108365Y0030289D02*
X0098730Y0030289D01*
X0098730Y0029291D02*
X0108365Y0029291D01*
X0108365Y0028292D02*
X0098730Y0028292D01*
X0098657Y0027293D02*
X0108488Y0027293D01*
X0108857Y0026295D02*
X0098243Y0026295D01*
X0097639Y0025296D02*
X0109483Y0025296D01*
X0110581Y0024298D02*
X0096641Y0024298D01*
X0098730Y0033285D02*
X0108365Y0033285D01*
X0108365Y0034283D02*
X0098730Y0034283D01*
X0098730Y0035282D02*
X0108365Y0035282D01*
X0108423Y0036280D02*
X0098730Y0036280D01*
X0098415Y0037279D02*
X0108678Y0037279D01*
X0109183Y0038277D02*
X0098001Y0038277D01*
X0097054Y0039276D02*
X0110041Y0039276D01*
X0115014Y0040274D02*
X0123862Y0040274D01*
X0123862Y0039276D02*
X0116739Y0039276D01*
X0117597Y0038277D02*
X0123862Y0038277D01*
X0123862Y0037279D02*
X0118101Y0037279D01*
X0118357Y0036280D02*
X0123862Y0036280D01*
X0123862Y0035282D02*
X0118415Y0035282D01*
X0118415Y0034283D02*
X0123862Y0034283D01*
X0123862Y0033285D02*
X0118415Y0033285D01*
X0118415Y0031288D02*
X0123862Y0031288D01*
X0123862Y0032286D02*
X0113890Y0032286D01*
X0113890Y0031288D02*
X0112890Y0031288D01*
X0112890Y0030289D02*
X0113890Y0030289D01*
X0113890Y0029291D02*
X0112890Y0029291D01*
X0112890Y0028292D02*
X0113890Y0028292D01*
X0113890Y0027293D02*
X0112890Y0027293D01*
X0112890Y0026295D02*
X0113890Y0026295D01*
X0113890Y0025296D02*
X0112890Y0025296D01*
X0112890Y0024298D02*
X0113890Y0024298D01*
X0116199Y0024298D02*
X0123862Y0024298D01*
X0123862Y0025296D02*
X0117296Y0025296D01*
X0117922Y0026295D02*
X0123862Y0026295D01*
X0123862Y0027293D02*
X0118291Y0027293D01*
X0118415Y0028292D02*
X0123862Y0028292D01*
X0123862Y0029291D02*
X0118415Y0029291D01*
X0118415Y0030289D02*
X0123862Y0030289D01*
X0129768Y0030289D02*
X0137642Y0030289D01*
X0137642Y0029291D02*
X0129768Y0029291D01*
X0129768Y0028292D02*
X0137642Y0028292D01*
X0137642Y0027545D02*
X0135280Y0025182D01*
X0132130Y0025182D01*
X0129768Y0027545D01*
X0129768Y0049986D01*
X0135280Y0055497D01*
X0139980Y0055497D01*
X0139980Y0049175D01*
X0137642Y0046836D01*
X0137642Y0027545D01*
X0137391Y0027293D02*
X0130019Y0027293D01*
X0131017Y0026295D02*
X0136392Y0026295D01*
X0135394Y0025296D02*
X0132016Y0025296D01*
X0129768Y0031288D02*
X0137642Y0031288D01*
X0137642Y0032286D02*
X0129768Y0032286D01*
X0129768Y0033285D02*
X0137642Y0033285D01*
X0137642Y0034283D02*
X0129768Y0034283D01*
X0129768Y0035282D02*
X0137642Y0035282D01*
X0137642Y0036280D02*
X0129768Y0036280D01*
X0129768Y0037279D02*
X0137642Y0037279D01*
X0137642Y0038277D02*
X0129768Y0038277D01*
X0129768Y0039276D02*
X0137642Y0039276D01*
X0137642Y0040274D02*
X0129768Y0040274D01*
X0129768Y0041273D02*
X0137642Y0041273D01*
X0137642Y0042271D02*
X0129768Y0042271D01*
X0129768Y0043270D02*
X0137642Y0043270D01*
X0137642Y0044268D02*
X0129768Y0044268D01*
X0129768Y0045267D02*
X0137642Y0045267D01*
X0137642Y0046265D02*
X0129768Y0046265D01*
X0129768Y0047264D02*
X0138070Y0047264D01*
X0139068Y0048262D02*
X0129768Y0048262D01*
X0129768Y0049261D02*
X0139980Y0049261D01*
X0139980Y0050259D02*
X0130041Y0050259D01*
X0131040Y0051258D02*
X0139980Y0051258D01*
X0139980Y0052256D02*
X0132038Y0052256D01*
X0133037Y0053255D02*
X0139980Y0053255D01*
X0139980Y0054253D02*
X0134035Y0054253D01*
X0135034Y0055252D02*
X0139980Y0055252D01*
X0141996Y0055104D02*
X0142527Y0055104D01*
X0142527Y0051395D01*
X0142539Y0051382D01*
X0142539Y0048577D01*
X0143418Y0047698D01*
X0143472Y0047698D01*
X0143547Y0047623D01*
X0145516Y0047623D01*
X0147484Y0045655D01*
X0147484Y0040930D01*
X0139610Y0040930D01*
X0139610Y0046049D01*
X0141579Y0048017D01*
X0141579Y0048159D01*
X0141996Y0048577D01*
X0141996Y0055104D01*
X0141996Y0054253D02*
X0142527Y0054253D01*
X0142527Y0053255D02*
X0141996Y0053255D01*
X0141996Y0052256D02*
X0142527Y0052256D01*
X0142539Y0051258D02*
X0141996Y0051258D01*
X0141996Y0050259D02*
X0142539Y0050259D01*
X0142539Y0049261D02*
X0141996Y0049261D01*
X0141681Y0048262D02*
X0142854Y0048262D01*
X0140825Y0047264D02*
X0145875Y0047264D01*
X0146874Y0046265D02*
X0139827Y0046265D01*
X0139610Y0045267D02*
X0147484Y0045267D01*
X0147484Y0044268D02*
X0139610Y0044268D01*
X0139610Y0043270D02*
X0147484Y0043270D01*
X0147484Y0042271D02*
X0139610Y0042271D01*
X0139610Y0041273D02*
X0147484Y0041273D01*
X0149453Y0041273D02*
X0157327Y0041273D01*
X0157327Y0042271D02*
X0149453Y0042271D01*
X0149453Y0043270D02*
X0157327Y0043270D01*
X0157327Y0044268D02*
X0149453Y0044268D01*
X0149453Y0045267D02*
X0157327Y0045267D01*
X0157327Y0046265D02*
X0149453Y0046265D01*
X0149453Y0046836D02*
X0147114Y0049175D01*
X0147114Y0051382D01*
X0147127Y0051395D01*
X0147127Y0055497D01*
X0151815Y0055497D01*
X0157327Y0049986D01*
X0157327Y0027545D01*
X0154965Y0025182D01*
X0151815Y0025182D01*
X0149453Y0027545D01*
X0149453Y0046836D01*
X0149025Y0047264D02*
X0157327Y0047264D01*
X0157327Y0048262D02*
X0148026Y0048262D01*
X0147114Y0049261D02*
X0157327Y0049261D01*
X0157053Y0050259D02*
X0147114Y0050259D01*
X0147114Y0051258D02*
X0156055Y0051258D01*
X0155056Y0052256D02*
X0147127Y0052256D01*
X0147127Y0053255D02*
X0154058Y0053255D01*
X0153059Y0054253D02*
X0147127Y0054253D01*
X0147127Y0055252D02*
X0152061Y0055252D01*
X0154788Y0057249D02*
X0205017Y0057249D01*
X0204974Y0057517D02*
X0205082Y0056840D01*
X0205326Y0056088D01*
X0205685Y0055383D01*
X0206150Y0054743D01*
X0206709Y0054184D01*
X0207349Y0053719D01*
X0208054Y0053360D01*
X0208806Y0053116D01*
X0209587Y0052992D01*
X0213008Y0052992D01*
X0213008Y0057517D01*
X0204974Y0057517D01*
X0205273Y0056250D02*
X0155786Y0056250D01*
X0156785Y0055252D02*
X0205781Y0055252D01*
X0206640Y0054253D02*
X0157783Y0054253D01*
X0158782Y0053255D02*
X0208378Y0053255D01*
X0213008Y0053255D02*
X0214008Y0053255D01*
X0214008Y0052992D02*
X0217428Y0052992D01*
X0218210Y0053116D01*
X0218962Y0053360D01*
X0219667Y0053719D01*
X0220306Y0054184D01*
X0220866Y0054743D01*
X0221331Y0055383D01*
X0221690Y0056088D01*
X0221934Y0056840D01*
X0222041Y0057517D01*
X0214008Y0057517D01*
X0214008Y0052992D01*
X0214008Y0054253D02*
X0213008Y0054253D01*
X0213008Y0055252D02*
X0214008Y0055252D01*
X0214008Y0056250D02*
X0213008Y0056250D01*
X0213008Y0057249D02*
X0214008Y0057249D01*
X0214008Y0058247D02*
X0225661Y0058247D01*
X0225661Y0057249D02*
X0221999Y0057249D01*
X0221742Y0056250D02*
X0225661Y0056250D01*
X0225661Y0055252D02*
X0221235Y0055252D01*
X0220376Y0054253D02*
X0225661Y0054253D01*
X0225661Y0053255D02*
X0218637Y0053255D01*
X0221917Y0059246D02*
X0225661Y0059246D01*
X0225661Y0060244D02*
X0221538Y0060244D01*
X0225661Y0064552D02*
X0186854Y0064552D01*
X0182917Y0068489D01*
X0182917Y0071403D01*
X0183461Y0072716D01*
X0183461Y0074499D01*
X0183035Y0075527D01*
X0183035Y0083554D01*
X0182917Y0083839D01*
X0182917Y0084238D01*
X0225661Y0084237D01*
X0225661Y0064552D01*
X0225661Y0065237D02*
X0186170Y0065237D01*
X0185171Y0066235D02*
X0225661Y0066235D01*
X0225661Y0067234D02*
X0184173Y0067234D01*
X0183174Y0068232D02*
X0225661Y0068232D01*
X0225661Y0069231D02*
X0182917Y0069231D01*
X0182917Y0070229D02*
X0225661Y0070229D01*
X0225661Y0071228D02*
X0182917Y0071228D01*
X0183259Y0072226D02*
X0225661Y0072226D01*
X0225661Y0073225D02*
X0183461Y0073225D01*
X0183461Y0074224D02*
X0225661Y0074224D01*
X0225661Y0075222D02*
X0183162Y0075222D01*
X0183035Y0076221D02*
X0225661Y0076221D01*
X0225661Y0077219D02*
X0183035Y0077219D01*
X0183035Y0078218D02*
X0225661Y0078218D01*
X0225661Y0079216D02*
X0183035Y0079216D01*
X0183035Y0080215D02*
X0225661Y0080215D01*
X0225661Y0081213D02*
X0183035Y0081213D01*
X0183035Y0082212D02*
X0225661Y0082212D01*
X0225661Y0083210D02*
X0183035Y0083210D01*
X0182917Y0084209D02*
X0225661Y0084209D01*
X0225661Y0090143D02*
X0175043Y0090143D01*
X0171106Y0094080D01*
X0171106Y0107860D01*
X0175043Y0111797D01*
X0208496Y0111797D01*
X0208784Y0111677D01*
X0218231Y0111677D01*
X0218520Y0111797D01*
X0225661Y0111797D01*
X0225661Y0090143D01*
X0225661Y0090200D02*
X0174987Y0090200D01*
X0173988Y0091198D02*
X0225661Y0091198D01*
X0225661Y0092197D02*
X0172990Y0092197D01*
X0171991Y0093195D02*
X0225661Y0093195D01*
X0225661Y0094194D02*
X0171106Y0094194D01*
X0171106Y0095192D02*
X0225661Y0095192D01*
X0225661Y0096191D02*
X0171106Y0096191D01*
X0171106Y0097189D02*
X0225661Y0097189D01*
X0225661Y0098188D02*
X0171106Y0098188D01*
X0171106Y0099186D02*
X0225661Y0099186D01*
X0225661Y0100185D02*
X0171106Y0100185D01*
X0171106Y0101183D02*
X0225661Y0101183D01*
X0225661Y0102182D02*
X0171106Y0102182D01*
X0171106Y0103180D02*
X0225661Y0103180D01*
X0225661Y0104179D02*
X0171106Y0104179D01*
X0171106Y0105177D02*
X0225661Y0105177D01*
X0225661Y0106176D02*
X0171106Y0106176D01*
X0171106Y0107174D02*
X0225661Y0107174D01*
X0225661Y0108173D02*
X0171420Y0108173D01*
X0172418Y0109171D02*
X0225661Y0109171D01*
X0225661Y0110170D02*
X0173417Y0110170D01*
X0174415Y0111168D02*
X0225661Y0111168D01*
X0225661Y0116161D02*
X0221816Y0116161D01*
X0222035Y0117159D02*
X0225661Y0117159D01*
X0225661Y0118158D02*
X0214008Y0118158D01*
X0214008Y0119157D02*
X0213008Y0119157D01*
X0213008Y0120155D02*
X0214008Y0120155D01*
X0214008Y0121154D02*
X0213008Y0121154D01*
X0213008Y0122152D02*
X0214008Y0122152D01*
X0213008Y0118158D02*
X0087807Y0118158D01*
X0087186Y0117159D02*
X0094872Y0117159D01*
X0095004Y0117292D02*
X0093795Y0116083D01*
X0093140Y0114502D01*
X0093140Y0112792D01*
X0093795Y0111211D01*
X0095004Y0110002D01*
X0096585Y0109347D01*
X0103895Y0109347D01*
X0105476Y0110002D01*
X0106686Y0111211D01*
X0107340Y0112792D01*
X0107340Y0114502D01*
X0106686Y0116083D01*
X0105476Y0117292D01*
X0103895Y0117947D01*
X0096585Y0117947D01*
X0095004Y0117292D01*
X0093873Y0116161D02*
X0087186Y0116161D01*
X0087528Y0115162D02*
X0093414Y0115162D01*
X0093140Y0114164D02*
X0088367Y0114164D01*
X0088367Y0113165D02*
X0093140Y0113165D01*
X0093399Y0112167D02*
X0088367Y0112167D01*
X0088367Y0111168D02*
X0093838Y0111168D01*
X0094836Y0110170D02*
X0088367Y0110170D01*
X0088367Y0109171D02*
X0121294Y0109171D01*
X0121294Y0108173D02*
X0088367Y0108173D01*
X0088367Y0107174D02*
X0094886Y0107174D01*
X0093888Y0106176D02*
X0088367Y0106176D01*
X0088367Y0105177D02*
X0093420Y0105177D01*
X0092550Y0104179D02*
X0088367Y0104179D01*
X0088367Y0103180D02*
X0091551Y0103180D01*
X0090553Y0102182D02*
X0088367Y0102182D01*
X0088367Y0101183D02*
X0089554Y0101183D01*
X0088556Y0100185D02*
X0088367Y0100185D01*
X0089610Y0098411D02*
X0094846Y0103647D01*
X0100240Y0103647D01*
X0094821Y0100185D02*
X0094213Y0100185D01*
X0093214Y0099186D02*
X0126693Y0099186D01*
X0126693Y0098188D02*
X0092216Y0098188D01*
X0091610Y0097189D02*
X0126693Y0097189D01*
X0126693Y0096191D02*
X0091610Y0096191D01*
X0091610Y0095192D02*
X0126693Y0095192D01*
X0125922Y0100185D02*
X0105659Y0100185D01*
X0106658Y0101183D02*
X0124924Y0101183D01*
X0123100Y0102182D02*
X0107088Y0102182D01*
X0107340Y0103180D02*
X0122101Y0103180D01*
X0121599Y0104179D02*
X0107340Y0104179D01*
X0107061Y0105177D02*
X0121294Y0105177D01*
X0121294Y0106176D02*
X0106592Y0106176D01*
X0105594Y0107174D02*
X0121294Y0107174D01*
X0121294Y0110170D02*
X0105644Y0110170D01*
X0106643Y0111168D02*
X0121294Y0111168D01*
X0121294Y0112167D02*
X0107081Y0112167D01*
X0107340Y0113165D02*
X0121685Y0113165D01*
X0122309Y0114164D02*
X0107340Y0114164D01*
X0107067Y0115162D02*
X0123518Y0115162D01*
X0127671Y0115162D02*
X0133570Y0115162D01*
X0133341Y0115046D02*
X0132793Y0114648D01*
X0132315Y0114169D01*
X0131917Y0113622D01*
X0131610Y0113019D01*
X0131400Y0112375D01*
X0131294Y0111707D01*
X0131294Y0108968D01*
X0135194Y0108968D01*
X0135194Y0115658D01*
X0134588Y0115562D01*
X0133944Y0115353D01*
X0133341Y0115046D01*
X0132311Y0114164D02*
X0128880Y0114164D01*
X0129504Y0113165D02*
X0131684Y0113165D01*
X0131367Y0112167D02*
X0129894Y0112167D01*
X0129894Y0111168D02*
X0131294Y0111168D01*
X0131294Y0110170D02*
X0129894Y0110170D01*
X0129894Y0109171D02*
X0131294Y0109171D01*
X0129894Y0108173D02*
X0135194Y0108173D01*
X0135995Y0108173D02*
X0141294Y0108173D01*
X0141294Y0109171D02*
X0139894Y0109171D01*
X0139894Y0110170D02*
X0141294Y0110170D01*
X0141294Y0111168D02*
X0139894Y0111168D01*
X0139822Y0112167D02*
X0141294Y0112167D01*
X0141685Y0113165D02*
X0139505Y0113165D01*
X0138878Y0114164D02*
X0142309Y0114164D01*
X0143518Y0115162D02*
X0137619Y0115162D01*
X0135994Y0115162D02*
X0135194Y0115162D01*
X0135194Y0114164D02*
X0135994Y0114164D01*
X0135994Y0113165D02*
X0135194Y0113165D01*
X0135194Y0112167D02*
X0135994Y0112167D01*
X0135994Y0111168D02*
X0135194Y0111168D01*
X0135194Y0110170D02*
X0135994Y0110170D01*
X0135994Y0109171D02*
X0135194Y0109171D01*
X0131294Y0107174D02*
X0129894Y0107174D01*
X0129894Y0106176D02*
X0131294Y0106176D01*
X0131334Y0105177D02*
X0129894Y0105177D01*
X0129590Y0104179D02*
X0131590Y0104179D01*
X0132160Y0103180D02*
X0129432Y0103180D01*
X0139029Y0103180D02*
X0141915Y0103180D01*
X0141599Y0104179D02*
X0139599Y0104179D01*
X0139854Y0105177D02*
X0141294Y0105177D01*
X0141294Y0106176D02*
X0139894Y0106176D01*
X0139894Y0107174D02*
X0141294Y0107174D01*
X0146423Y0101183D02*
X0167169Y0101183D01*
X0167169Y0100185D02*
X0145424Y0100185D01*
X0144654Y0099186D02*
X0167169Y0099186D01*
X0167169Y0098188D02*
X0144654Y0098188D01*
X0144654Y0097189D02*
X0167169Y0097189D01*
X0167169Y0096191D02*
X0144654Y0096191D01*
X0144654Y0095192D02*
X0167169Y0095192D01*
X0167169Y0094194D02*
X0151067Y0094194D01*
X0151150Y0093195D02*
X0167169Y0093195D01*
X0167169Y0092197D02*
X0151150Y0092197D01*
X0151150Y0091198D02*
X0167169Y0091198D01*
X0167169Y0090200D02*
X0151150Y0090200D01*
X0151150Y0089201D02*
X0167169Y0089201D01*
X0167169Y0088203D02*
X0150421Y0088203D01*
X0151150Y0087204D02*
X0168140Y0087204D01*
X0169138Y0086206D02*
X0151150Y0086206D01*
X0151150Y0085207D02*
X0170137Y0085207D01*
X0171135Y0084209D02*
X0151150Y0084209D01*
X0151150Y0083210D02*
X0172134Y0083210D01*
X0173132Y0082212D02*
X0151123Y0082212D01*
X0149784Y0081213D02*
X0174131Y0081213D01*
X0175043Y0080215D02*
X0149273Y0080215D01*
X0148394Y0079216D02*
X0175043Y0079216D01*
X0175043Y0078218D02*
X0148394Y0078218D01*
X0148394Y0077219D02*
X0151291Y0077219D01*
X0155489Y0077219D02*
X0175043Y0077219D01*
X0175043Y0076221D02*
X0156402Y0076221D01*
X0156815Y0075222D02*
X0175043Y0075222D01*
X0175043Y0074224D02*
X0156871Y0074224D01*
X0156673Y0073225D02*
X0175043Y0073225D01*
X0175043Y0072226D02*
X0156144Y0072226D01*
X0154840Y0071228D02*
X0175043Y0071228D01*
X0175043Y0070229D02*
X0149673Y0070229D01*
X0149673Y0069231D02*
X0175043Y0069231D01*
X0175300Y0068232D02*
X0149673Y0068232D01*
X0149673Y0067234D02*
X0176299Y0067234D01*
X0177297Y0066235D02*
X0149673Y0066235D01*
X0149593Y0065237D02*
X0178296Y0065237D01*
X0179294Y0064238D02*
X0148678Y0064238D01*
X0148768Y0063240D02*
X0180293Y0063240D01*
X0181291Y0062241D02*
X0148768Y0062241D01*
X0148768Y0061243D02*
X0182290Y0061243D01*
X0163232Y0048262D02*
X0225661Y0048262D01*
X0225661Y0047264D02*
X0163232Y0047264D01*
X0163232Y0046265D02*
X0225661Y0046265D01*
X0225661Y0045267D02*
X0163232Y0045267D01*
X0163232Y0044268D02*
X0225661Y0044268D01*
X0225661Y0043270D02*
X0163232Y0043270D01*
X0163232Y0042271D02*
X0225661Y0042271D01*
X0225661Y0041273D02*
X0163232Y0041273D01*
X0163232Y0040274D02*
X0213400Y0040274D01*
X0211116Y0039276D02*
X0163232Y0039276D01*
X0163232Y0038277D02*
X0209643Y0038277D01*
X0208644Y0037279D02*
X0163232Y0037279D01*
X0163232Y0036280D02*
X0207819Y0036280D01*
X0207242Y0035282D02*
X0163232Y0035282D01*
X0163232Y0034283D02*
X0206676Y0034283D01*
X0206409Y0033285D02*
X0163232Y0033285D01*
X0163232Y0032286D02*
X0167412Y0032286D01*
X0168345Y0033219D02*
X0165943Y0030818D01*
X0165943Y0029419D01*
X0169743Y0029419D01*
X0169743Y0028819D01*
X0170343Y0028819D01*
X0170343Y0025019D01*
X0171742Y0025019D01*
X0174143Y0027421D01*
X0174143Y0028819D01*
X0170343Y0028819D01*
X0170343Y0029419D01*
X0174143Y0029419D01*
X0174143Y0030818D01*
X0171742Y0033219D01*
X0170343Y0033219D01*
X0170343Y0029419D01*
X0169743Y0029419D01*
X0169743Y0033219D01*
X0168345Y0033219D01*
X0169743Y0032286D02*
X0170343Y0032286D01*
X0170343Y0031288D02*
X0169743Y0031288D01*
X0169743Y0030289D02*
X0170343Y0030289D01*
X0170343Y0029291D02*
X0175943Y0029291D01*
X0175943Y0030289D02*
X0174143Y0030289D01*
X0173673Y0031288D02*
X0176413Y0031288D01*
X0175943Y0030818D02*
X0175943Y0027421D01*
X0178345Y0025019D01*
X0181742Y0025019D01*
X0184143Y0027421D01*
X0184143Y0030818D01*
X0181742Y0033219D01*
X0178345Y0033219D01*
X0175943Y0030818D01*
X0177412Y0032286D02*
X0172675Y0032286D01*
X0169743Y0029291D02*
X0163232Y0029291D01*
X0163232Y0030289D02*
X0165943Y0030289D01*
X0166413Y0031288D02*
X0163232Y0031288D01*
X0163232Y0028292D02*
X0165943Y0028292D01*
X0165943Y0028819D02*
X0165943Y0027421D01*
X0168345Y0025019D01*
X0169743Y0025019D01*
X0169743Y0028819D01*
X0165943Y0028819D01*
X0166071Y0027293D02*
X0163232Y0027293D01*
X0163232Y0026295D02*
X0167069Y0026295D01*
X0168068Y0025296D02*
X0163232Y0025296D01*
X0163232Y0024298D02*
X0207832Y0024298D01*
X0207256Y0025296D02*
X0182019Y0025296D01*
X0183017Y0026295D02*
X0206683Y0026295D01*
X0206415Y0027293D02*
X0184016Y0027293D01*
X0184143Y0028292D02*
X0206147Y0028292D01*
X0205976Y0029291D02*
X0184143Y0029291D01*
X0184143Y0030289D02*
X0205976Y0030289D01*
X0205976Y0031288D02*
X0183673Y0031288D01*
X0182675Y0032286D02*
X0206141Y0032286D01*
X0208667Y0023299D02*
X0163232Y0023299D01*
X0163232Y0022301D02*
X0209666Y0022301D01*
X0225521Y0035282D02*
X0225661Y0035282D01*
X0225661Y0036280D02*
X0224945Y0036280D01*
X0225661Y0037279D02*
X0224119Y0037279D01*
X0223121Y0038277D02*
X0225661Y0038277D01*
X0225661Y0039276D02*
X0221648Y0039276D01*
X0219364Y0040274D02*
X0225661Y0040274D01*
X0225661Y0049261D02*
X0162776Y0049261D01*
X0161777Y0050259D02*
X0225661Y0050259D01*
X0225661Y0051258D02*
X0160779Y0051258D01*
X0159780Y0052256D02*
X0225661Y0052256D01*
X0213008Y0058247D02*
X0148768Y0058247D01*
X0148768Y0059246D02*
X0205099Y0059246D01*
X0205478Y0060244D02*
X0144047Y0060244D01*
X0144047Y0061115D02*
X0143047Y0061115D01*
X0143047Y0064234D01*
X0144047Y0064234D01*
X0144047Y0061115D01*
X0144047Y0061243D02*
X0143047Y0061243D01*
X0143047Y0062241D02*
X0144047Y0062241D01*
X0144047Y0063240D02*
X0143047Y0063240D01*
X0143047Y0060244D02*
X0119260Y0060244D01*
X0119260Y0059246D02*
X0138327Y0059246D01*
X0138327Y0058247D02*
X0118891Y0058247D01*
X0119260Y0061243D02*
X0138327Y0061243D01*
X0138327Y0062241D02*
X0119260Y0062241D01*
X0119260Y0063240D02*
X0138327Y0063240D01*
X0138295Y0064238D02*
X0135673Y0064238D01*
X0135673Y0063240D02*
X0151421Y0063240D01*
X0151421Y0064238D02*
X0146240Y0064238D01*
X0147114Y0065237D02*
X0151421Y0065237D01*
X0151421Y0066235D02*
X0147114Y0066235D01*
X0147114Y0067234D02*
X0151421Y0067234D01*
X0151421Y0068232D02*
X0147127Y0068232D01*
X0147127Y0069231D02*
X0151421Y0069231D01*
X0151421Y0070229D02*
X0147127Y0070229D01*
X0147127Y0071228D02*
X0151421Y0071228D01*
X0151939Y0071228D02*
X0149673Y0071228D01*
X0139709Y0068883D02*
X0115201Y0068883D01*
X0114807Y0068489D01*
X0110354Y0068232D02*
X0039548Y0068232D01*
X0039548Y0067234D02*
X0110354Y0067234D01*
X0110354Y0066235D02*
X0039548Y0066235D01*
X0039548Y0065237D02*
X0107323Y0065237D01*
X0108905Y0065237D02*
X0110427Y0065237D01*
X0110354Y0069231D02*
X0039548Y0069231D01*
X0039548Y0070229D02*
X0110354Y0070229D01*
X0110354Y0071228D02*
X0039548Y0071228D01*
X0039548Y0072226D02*
X0110408Y0072226D01*
X0110354Y0073225D02*
X0039548Y0073225D01*
X0039548Y0074224D02*
X0110354Y0074224D01*
X0110354Y0075682D02*
X0114307Y0075682D01*
X0114307Y0079241D01*
X0111657Y0079241D01*
X0111275Y0079139D01*
X0110933Y0078942D01*
X0110654Y0078662D01*
X0110457Y0078320D01*
X0110354Y0077939D01*
X0110354Y0075682D01*
X0110354Y0076221D02*
X0039548Y0076221D01*
X0039548Y0077219D02*
X0110354Y0077219D01*
X0110429Y0078218D02*
X0039548Y0078218D01*
X0039548Y0079216D02*
X0111562Y0079216D01*
X0114307Y0079216D02*
X0115307Y0079216D01*
X0115307Y0078218D02*
X0114307Y0078218D01*
X0114307Y0077219D02*
X0115307Y0077219D01*
X0115307Y0076221D02*
X0114307Y0076221D01*
X0114307Y0075222D02*
X0039548Y0075222D01*
X0034948Y0073225D02*
X0034606Y0073225D01*
X0034948Y0072226D02*
X0033608Y0072226D01*
X0032609Y0071228D02*
X0034948Y0071228D01*
X0034948Y0070229D02*
X0031611Y0070229D01*
X0030800Y0069231D02*
X0034948Y0069231D01*
X0034948Y0068232D02*
X0030800Y0068232D01*
X0030420Y0067234D02*
X0034948Y0067234D01*
X0034948Y0066235D02*
X0029422Y0066235D01*
X0028423Y0065237D02*
X0034948Y0065237D01*
X0034948Y0064238D02*
X0027823Y0064238D01*
X0028800Y0063240D02*
X0034948Y0063240D01*
X0034948Y0062241D02*
X0029735Y0062241D01*
X0030733Y0061243D02*
X0034948Y0061243D01*
X0034097Y0060244D02*
X0030800Y0060244D01*
X0030800Y0059246D02*
X0033098Y0059246D01*
X0032100Y0058247D02*
X0030800Y0058247D01*
X0031101Y0057249D02*
X0030435Y0057249D01*
X0030103Y0056250D02*
X0029436Y0056250D01*
X0029104Y0055252D02*
X0028438Y0055252D01*
X0028106Y0054253D02*
X0014189Y0054253D01*
X0014189Y0053255D02*
X0014279Y0053255D01*
X0014189Y0055252D02*
X0014562Y0055252D01*
X0018438Y0055252D02*
X0024562Y0055252D01*
X0023564Y0056250D02*
X0019436Y0056250D01*
X0020435Y0057249D02*
X0022565Y0057249D01*
X0022200Y0058247D02*
X0020800Y0058247D01*
X0020800Y0059246D02*
X0022200Y0059246D01*
X0022200Y0060244D02*
X0020800Y0060244D01*
X0020733Y0061243D02*
X0022267Y0061243D01*
X0023265Y0062241D02*
X0019735Y0062241D01*
X0018736Y0063240D02*
X0022316Y0063240D01*
X0021317Y0064238D02*
X0014189Y0064238D01*
X0014189Y0063240D02*
X0014264Y0063240D01*
X0014189Y0065237D02*
X0014577Y0065237D01*
X0016100Y0065237D02*
X0016900Y0065237D01*
X0016900Y0066235D02*
X0016100Y0066235D01*
X0016100Y0067234D02*
X0016900Y0067234D01*
X0016900Y0068232D02*
X0016100Y0068232D01*
X0016100Y0070229D02*
X0016900Y0070229D01*
X0016900Y0071228D02*
X0016100Y0071228D01*
X0016100Y0072226D02*
X0016900Y0072226D01*
X0016900Y0073225D02*
X0016100Y0073225D01*
X0014249Y0073225D02*
X0014189Y0073225D01*
X0014189Y0074224D02*
X0021225Y0074224D01*
X0020941Y0073939D02*
X0020941Y0073939D01*
X0020227Y0073225D02*
X0018751Y0073225D01*
X0018408Y0075222D02*
X0022224Y0075222D01*
X0023222Y0076221D02*
X0019407Y0076221D01*
X0020405Y0077219D02*
X0022595Y0077219D01*
X0022200Y0078218D02*
X0020800Y0078218D01*
X0020800Y0079216D02*
X0022200Y0079216D01*
X0022200Y0080215D02*
X0020800Y0080215D01*
X0020763Y0081213D02*
X0022237Y0081213D01*
X0023236Y0082212D02*
X0019764Y0082212D01*
X0018766Y0083210D02*
X0024234Y0083210D01*
X0024607Y0085207D02*
X0018393Y0085207D01*
X0019392Y0086206D02*
X0023608Y0086206D01*
X0022610Y0087204D02*
X0020390Y0087204D01*
X0020800Y0088203D02*
X0022200Y0088203D01*
X0020800Y0089201D02*
X0026100Y0089201D01*
X0026100Y0088203D02*
X0026900Y0088203D01*
X0026900Y0087204D02*
X0026100Y0087204D01*
X0026100Y0086206D02*
X0026900Y0086206D01*
X0026900Y0085207D02*
X0026100Y0085207D01*
X0028393Y0085207D02*
X0029436Y0085207D01*
X0029436Y0084209D02*
X0014189Y0084209D01*
X0014189Y0085207D02*
X0014607Y0085207D01*
X0014234Y0083210D02*
X0014189Y0083210D01*
X0014189Y0075222D02*
X0014592Y0075222D01*
X0019422Y0066235D02*
X0019594Y0066235D01*
X0020319Y0065237D02*
X0018423Y0065237D01*
X0018721Y0053255D02*
X0024582Y0053255D01*
X0023280Y0052256D02*
X0019720Y0052256D01*
X0020718Y0051258D02*
X0022617Y0051258D01*
X0022204Y0050259D02*
X0020800Y0050259D01*
X0020800Y0049261D02*
X0022200Y0049261D01*
X0022315Y0048262D02*
X0020800Y0048262D01*
X0020450Y0047264D02*
X0022729Y0047264D01*
X0023549Y0046265D02*
X0019451Y0046265D01*
X0018453Y0045267D02*
X0025230Y0045267D01*
X0027770Y0045267D02*
X0123862Y0045267D01*
X0123862Y0046265D02*
X0029451Y0046265D01*
X0030271Y0047264D02*
X0123862Y0047264D01*
X0123862Y0048262D02*
X0030685Y0048262D01*
X0030800Y0049261D02*
X0124338Y0049261D01*
X0125380Y0050259D02*
X0030796Y0050259D01*
X0031615Y0051258D02*
X0126422Y0051258D01*
X0127464Y0052256D02*
X0032614Y0052256D01*
X0033612Y0053255D02*
X0128506Y0053255D01*
X0129548Y0054253D02*
X0034611Y0054253D01*
X0035609Y0055252D02*
X0130590Y0055252D01*
X0131632Y0056250D02*
X0036608Y0056250D01*
X0037607Y0057249D02*
X0132674Y0057249D01*
X0135673Y0058247D02*
X0151421Y0058247D01*
X0151421Y0059246D02*
X0135673Y0059246D01*
X0135673Y0060244D02*
X0151421Y0060244D01*
X0151421Y0061243D02*
X0135673Y0061243D01*
X0135673Y0062241D02*
X0151421Y0062241D01*
X0138295Y0064238D02*
X0119260Y0064238D01*
X0119188Y0065237D02*
X0137421Y0065237D01*
X0135673Y0065237D01*
X0135673Y0066235D02*
X0137421Y0066235D01*
X0119260Y0066235D01*
X0114807Y0061797D02*
X0108114Y0061797D01*
X0105633Y0064238D02*
X0039548Y0064238D01*
X0039548Y0063240D02*
X0104944Y0063240D01*
X0104633Y0062241D02*
X0039548Y0062241D01*
X0039548Y0061243D02*
X0104633Y0061243D01*
X0104989Y0060244D02*
X0039548Y0060244D01*
X0039548Y0059246D02*
X0105742Y0059246D01*
X0110723Y0058247D02*
X0038605Y0058247D01*
X0014547Y0045267D02*
X0014189Y0045267D01*
X0014189Y0044268D02*
X0123862Y0044268D01*
X0123862Y0043270D02*
X0014189Y0043270D01*
X0014189Y0042271D02*
X0123862Y0042271D01*
X0123862Y0041273D02*
X0014189Y0041273D01*
X0039548Y0080215D02*
X0122073Y0080215D01*
X0121562Y0081213D02*
X0083509Y0081213D01*
X0084507Y0082212D02*
X0120223Y0082212D01*
X0120197Y0083210D02*
X0085506Y0083210D01*
X0086504Y0084209D02*
X0120197Y0084209D01*
X0120197Y0085207D02*
X0087503Y0085207D01*
X0088501Y0086206D02*
X0120197Y0086206D01*
X0120197Y0087204D02*
X0089500Y0087204D01*
X0090498Y0088203D02*
X0120925Y0088203D01*
X0120197Y0089201D02*
X0091497Y0089201D01*
X0091610Y0090200D02*
X0120197Y0090200D01*
X0120197Y0091198D02*
X0091610Y0091198D01*
X0091610Y0092197D02*
X0120197Y0092197D01*
X0120197Y0093195D02*
X0091610Y0093195D01*
X0091610Y0094194D02*
X0120280Y0094194D01*
X0118052Y0079216D02*
X0122953Y0079216D01*
X0122953Y0078218D02*
X0119185Y0078218D01*
X0119260Y0077219D02*
X0122953Y0077219D01*
X0123065Y0076221D02*
X0119260Y0076221D01*
X0119260Y0074224D02*
X0139875Y0074224D01*
X0138877Y0075222D02*
X0115307Y0075222D01*
X0119260Y0073225D02*
X0137992Y0073225D01*
X0137421Y0072226D02*
X0119206Y0072226D01*
X0119260Y0071228D02*
X0137421Y0071228D01*
X0148089Y0102182D02*
X0167169Y0102182D01*
X0167169Y0103180D02*
X0149088Y0103180D01*
X0149590Y0104179D02*
X0167169Y0104179D01*
X0167169Y0105177D02*
X0149894Y0105177D01*
X0149894Y0106176D02*
X0167169Y0106176D01*
X0167169Y0107174D02*
X0149894Y0107174D01*
X0149894Y0108173D02*
X0167169Y0108173D01*
X0167169Y0109171D02*
X0149894Y0109171D01*
X0149894Y0110170D02*
X0167169Y0110170D01*
X0167169Y0111168D02*
X0149894Y0111168D01*
X0149894Y0112167D02*
X0167540Y0112167D01*
X0168538Y0113165D02*
X0149504Y0113165D01*
X0148880Y0114164D02*
X0169537Y0114164D01*
X0170535Y0115162D02*
X0147671Y0115162D01*
X0154622Y0121999D02*
X0155831Y0120789D01*
X0157412Y0120134D01*
X0164722Y0120134D01*
X0166303Y0120789D01*
X0167512Y0121999D01*
X0168167Y0123579D01*
X0168167Y0125290D01*
X0167512Y0126870D01*
X0166303Y0128080D01*
X0164722Y0128734D01*
X0157412Y0128734D01*
X0155831Y0128080D01*
X0154622Y0126870D01*
X0153967Y0125290D01*
X0153967Y0123579D01*
X0154622Y0121999D01*
X0154558Y0122152D02*
X0107043Y0122152D01*
X0107340Y0122870D02*
X0107340Y0124581D01*
X0106686Y0126161D01*
X0105476Y0127371D01*
X0103895Y0128026D01*
X0096585Y0128026D01*
X0095004Y0127371D01*
X0093795Y0126161D01*
X0093140Y0124581D01*
X0093140Y0122870D01*
X0093795Y0121290D01*
X0095004Y0120080D01*
X0096585Y0119426D01*
X0103895Y0119426D01*
X0105476Y0120080D01*
X0106686Y0121290D01*
X0107340Y0122870D01*
X0107340Y0123151D02*
X0154144Y0123151D01*
X0153967Y0124149D02*
X0107340Y0124149D01*
X0107105Y0125148D02*
X0153967Y0125148D01*
X0154322Y0126146D02*
X0106692Y0126146D01*
X0105702Y0127145D02*
X0154896Y0127145D01*
X0155984Y0128143D02*
X0092304Y0128143D01*
X0092304Y0127145D02*
X0094778Y0127145D01*
X0093788Y0126146D02*
X0092304Y0126146D01*
X0092304Y0125148D02*
X0093375Y0125148D01*
X0093140Y0124149D02*
X0092304Y0124149D01*
X0092304Y0123151D02*
X0093140Y0123151D01*
X0093438Y0122152D02*
X0091801Y0122152D01*
X0090803Y0121154D02*
X0093931Y0121154D01*
X0094930Y0120155D02*
X0089804Y0120155D01*
X0088806Y0119157D02*
X0205172Y0119157D01*
X0205593Y0120155D02*
X0164772Y0120155D01*
X0166667Y0121154D02*
X0206328Y0121154D01*
X0207648Y0122152D02*
X0167576Y0122152D01*
X0167989Y0123151D02*
X0225661Y0123151D01*
X0225661Y0124149D02*
X0168167Y0124149D01*
X0168167Y0125148D02*
X0225661Y0125148D01*
X0225661Y0126146D02*
X0167812Y0126146D01*
X0167238Y0127145D02*
X0225661Y0127145D01*
X0225661Y0128143D02*
X0166150Y0128143D01*
X0164736Y0130140D02*
X0225661Y0130140D01*
X0225661Y0129142D02*
X0092304Y0129142D01*
X0092304Y0130140D02*
X0094945Y0130140D01*
X0093946Y0131139D02*
X0092304Y0131139D01*
X0092304Y0132137D02*
X0093444Y0132137D01*
X0093140Y0133136D02*
X0092304Y0133136D01*
X0089643Y0137130D02*
X0087805Y0137130D01*
X0086807Y0138128D02*
X0090642Y0138128D01*
X0091641Y0139127D02*
X0085808Y0139127D01*
X0085764Y0140125D02*
X0092639Y0140125D01*
X0093638Y0141124D02*
X0085764Y0141124D01*
X0085764Y0142122D02*
X0098573Y0142122D01*
X0099572Y0143121D02*
X0084926Y0143121D01*
X0083927Y0144119D02*
X0100570Y0144119D01*
X0101569Y0145118D02*
X0014189Y0145118D01*
X0014189Y0146116D02*
X0102567Y0146116D01*
X0103452Y0147115D02*
X0014189Y0147115D01*
X0014189Y0148113D02*
X0103857Y0148113D01*
X0104680Y0149112D02*
X0014189Y0149112D01*
X0014189Y0150110D02*
X0208350Y0150110D01*
X0208082Y0149112D02*
X0124298Y0149112D01*
X0125165Y0148113D02*
X0155912Y0148113D01*
X0155831Y0148080D02*
X0154622Y0146870D01*
X0153967Y0145290D01*
X0153967Y0143579D01*
X0154622Y0141999D01*
X0155831Y0140789D01*
X0157412Y0140134D01*
X0164722Y0140134D01*
X0166303Y0140789D01*
X0167512Y0141999D01*
X0168167Y0143579D01*
X0168167Y0145290D01*
X0167512Y0146870D01*
X0166303Y0148080D01*
X0164722Y0148734D01*
X0157412Y0148734D01*
X0155831Y0148080D01*
X0154866Y0147115D02*
X0125165Y0147115D01*
X0125165Y0146116D02*
X0154309Y0146116D01*
X0153967Y0145118D02*
X0125165Y0145118D01*
X0125165Y0144119D02*
X0153967Y0144119D01*
X0154157Y0143121D02*
X0125165Y0143121D01*
X0124595Y0142122D02*
X0154570Y0142122D01*
X0155496Y0141124D02*
X0128890Y0141124D01*
X0129889Y0140125D02*
X0210739Y0140125D01*
X0209860Y0141124D02*
X0201232Y0141124D01*
X0200364Y0140256D02*
X0202765Y0142657D01*
X0202765Y0144056D01*
X0198965Y0144056D01*
X0198965Y0144656D01*
X0198365Y0144656D01*
X0198365Y0148456D01*
X0196967Y0148456D01*
X0194565Y0146054D01*
X0194565Y0144656D01*
X0198365Y0144656D01*
X0198365Y0144056D01*
X0194565Y0144056D01*
X0194565Y0142657D01*
X0196967Y0140256D01*
X0198365Y0140256D01*
X0198365Y0144056D01*
X0198965Y0144056D01*
X0198965Y0140256D01*
X0200364Y0140256D01*
X0198965Y0141124D02*
X0198365Y0141124D01*
X0198365Y0142122D02*
X0198965Y0142122D01*
X0198965Y0143121D02*
X0198365Y0143121D01*
X0198365Y0144119D02*
X0183217Y0144119D01*
X0183217Y0144056D02*
X0183217Y0144656D01*
X0182617Y0144656D01*
X0182617Y0148456D01*
X0181219Y0148456D01*
X0178817Y0146054D01*
X0178817Y0144656D01*
X0182617Y0144656D01*
X0182617Y0144056D01*
X0178817Y0144056D01*
X0178817Y0142657D01*
X0181219Y0140256D01*
X0182617Y0140256D01*
X0182617Y0144056D01*
X0183217Y0144056D01*
X0187017Y0144056D01*
X0187017Y0142657D01*
X0184616Y0140256D01*
X0183217Y0140256D01*
X0183217Y0144056D01*
X0183217Y0144656D02*
X0187017Y0144656D01*
X0187017Y0146054D01*
X0184616Y0148456D01*
X0183217Y0148456D01*
X0183217Y0144656D01*
X0183217Y0145118D02*
X0182617Y0145118D01*
X0182617Y0146116D02*
X0183217Y0146116D01*
X0183217Y0147115D02*
X0182617Y0147115D01*
X0182617Y0148113D02*
X0183217Y0148113D01*
X0184958Y0148113D02*
X0196625Y0148113D01*
X0195626Y0147115D02*
X0185956Y0147115D01*
X0186955Y0146116D02*
X0194628Y0146116D01*
X0194565Y0145118D02*
X0187017Y0145118D01*
X0187017Y0143121D02*
X0194565Y0143121D01*
X0195100Y0142122D02*
X0186482Y0142122D01*
X0185484Y0141124D02*
X0196099Y0141124D01*
X0196967Y0138456D02*
X0194565Y0136054D01*
X0194565Y0132657D01*
X0196967Y0130256D01*
X0200364Y0130256D01*
X0202765Y0132657D01*
X0202765Y0136054D01*
X0200364Y0138456D01*
X0196967Y0138456D01*
X0196640Y0138128D02*
X0184943Y0138128D01*
X0184616Y0138456D02*
X0181219Y0138456D01*
X0178817Y0136054D01*
X0178817Y0132657D01*
X0181219Y0130256D01*
X0184616Y0130256D01*
X0187017Y0132657D01*
X0187017Y0136054D01*
X0184616Y0138456D01*
X0185941Y0137130D02*
X0195641Y0137130D01*
X0194643Y0136131D02*
X0186940Y0136131D01*
X0187017Y0135133D02*
X0194565Y0135133D01*
X0194565Y0134134D02*
X0187017Y0134134D01*
X0187017Y0133136D02*
X0194565Y0133136D01*
X0195086Y0132137D02*
X0186497Y0132137D01*
X0185499Y0131139D02*
X0196084Y0131139D01*
X0201247Y0131139D02*
X0225661Y0131139D01*
X0225661Y0132137D02*
X0202245Y0132137D01*
X0202765Y0133136D02*
X0225661Y0133136D01*
X0225661Y0134134D02*
X0202765Y0134134D01*
X0202765Y0135133D02*
X0225661Y0135133D01*
X0225661Y0136131D02*
X0202688Y0136131D01*
X0201689Y0137130D02*
X0215840Y0137130D01*
X0213303Y0138128D02*
X0200691Y0138128D01*
X0202230Y0142122D02*
X0209284Y0142122D01*
X0208707Y0143121D02*
X0202765Y0143121D01*
X0202765Y0144656D02*
X0198965Y0144656D01*
X0198965Y0148456D01*
X0200364Y0148456D01*
X0202765Y0146054D01*
X0202765Y0144656D01*
X0202765Y0145118D02*
X0208144Y0145118D01*
X0207945Y0146116D02*
X0202703Y0146116D01*
X0201704Y0147115D02*
X0207945Y0147115D01*
X0207945Y0148113D02*
X0200706Y0148113D01*
X0198965Y0148113D02*
X0198365Y0148113D01*
X0198365Y0147115D02*
X0198965Y0147115D01*
X0198965Y0146116D02*
X0198365Y0146116D01*
X0198365Y0145118D02*
X0198965Y0145118D01*
X0198965Y0144119D02*
X0208411Y0144119D01*
X0211738Y0139127D02*
X0130887Y0139127D01*
X0131886Y0138128D02*
X0155948Y0138128D01*
X0155831Y0138080D02*
X0154622Y0136870D01*
X0153967Y0135290D01*
X0153967Y0133579D01*
X0154622Y0131999D01*
X0155831Y0130789D01*
X0157412Y0130134D01*
X0164722Y0130134D01*
X0166303Y0130789D01*
X0167512Y0131999D01*
X0168167Y0133579D01*
X0168167Y0135290D01*
X0167512Y0136870D01*
X0166303Y0138080D01*
X0164722Y0138734D01*
X0157412Y0138734D01*
X0155831Y0138080D01*
X0154881Y0137130D02*
X0132884Y0137130D01*
X0134821Y0136131D02*
X0154316Y0136131D01*
X0153967Y0135133D02*
X0136551Y0135133D01*
X0137257Y0134134D02*
X0153967Y0134134D01*
X0154151Y0133136D02*
X0137580Y0133136D01*
X0137580Y0132137D02*
X0154564Y0132137D01*
X0155481Y0131139D02*
X0137235Y0131139D01*
X0136499Y0130140D02*
X0157398Y0130140D01*
X0155467Y0121154D02*
X0106549Y0121154D01*
X0105551Y0120155D02*
X0157362Y0120155D01*
X0166652Y0131139D02*
X0180336Y0131139D01*
X0179337Y0132137D02*
X0167570Y0132137D01*
X0167983Y0133136D02*
X0178817Y0133136D01*
X0178817Y0134134D02*
X0168167Y0134134D01*
X0168167Y0135133D02*
X0178817Y0135133D01*
X0178895Y0136131D02*
X0167818Y0136131D01*
X0167253Y0137130D02*
X0179893Y0137130D01*
X0180892Y0138128D02*
X0166186Y0138128D01*
X0166637Y0141124D02*
X0180351Y0141124D01*
X0179352Y0142122D02*
X0167564Y0142122D01*
X0167977Y0143121D02*
X0178817Y0143121D01*
X0178817Y0145118D02*
X0168167Y0145118D01*
X0168167Y0144119D02*
X0182617Y0144119D01*
X0182617Y0143121D02*
X0183217Y0143121D01*
X0183217Y0142122D02*
X0182617Y0142122D01*
X0182617Y0141124D02*
X0183217Y0141124D01*
X0178880Y0146116D02*
X0167825Y0146116D01*
X0167268Y0147115D02*
X0179878Y0147115D01*
X0180877Y0148113D02*
X0166221Y0148113D01*
X0130373Y0133136D02*
X0107340Y0133136D01*
X0107340Y0134134D02*
X0129374Y0134134D01*
X0128376Y0135133D02*
X0107112Y0135133D01*
X0106698Y0136131D02*
X0110989Y0136131D01*
X0107036Y0132137D02*
X0130617Y0132137D01*
X0130962Y0131139D02*
X0106534Y0131139D01*
X0105536Y0130140D02*
X0131698Y0130140D01*
X0127377Y0136131D02*
X0124924Y0136131D01*
X0118076Y0136131D02*
X0117838Y0136131D01*
X0110748Y0148113D02*
X0110009Y0148113D01*
X0109186Y0149112D02*
X0111615Y0149112D01*
X0117212Y0149112D02*
X0118702Y0149112D01*
X0084295Y0134134D02*
X0083912Y0134134D01*
X0083297Y0135133D02*
X0078524Y0135133D01*
X0078524Y0136131D02*
X0079187Y0136131D01*
X0078189Y0137130D02*
X0077805Y0137130D01*
X0077190Y0138128D02*
X0076807Y0138128D01*
X0076764Y0139127D02*
X0075808Y0139127D01*
X0075764Y0140125D02*
X0076764Y0140125D01*
X0076764Y0141124D02*
X0075764Y0141124D01*
X0075764Y0142122D02*
X0076764Y0142122D01*
X0077602Y0143121D02*
X0074926Y0143121D01*
X0073927Y0144119D02*
X0078601Y0144119D01*
X0068601Y0144119D02*
X0063927Y0144119D01*
X0063128Y0144919D02*
X0061764Y0144919D01*
X0061764Y0140919D01*
X0060764Y0140919D01*
X0060764Y0144919D01*
X0059400Y0144919D01*
X0056764Y0142283D01*
X0056764Y0140919D01*
X0060764Y0140919D01*
X0060764Y0139919D01*
X0056764Y0139919D01*
X0056764Y0138555D01*
X0059400Y0135919D01*
X0060764Y0135919D01*
X0060764Y0139919D01*
X0061764Y0139919D01*
X0061764Y0140919D01*
X0065764Y0140919D01*
X0065764Y0142283D01*
X0063128Y0144919D01*
X0061764Y0144119D02*
X0060764Y0144119D01*
X0060764Y0143121D02*
X0061764Y0143121D01*
X0061764Y0142122D02*
X0060764Y0142122D01*
X0060764Y0141124D02*
X0061764Y0141124D01*
X0061764Y0140125D02*
X0066764Y0140125D01*
X0066764Y0139127D02*
X0065764Y0139127D01*
X0065764Y0138555D02*
X0065764Y0139919D01*
X0061764Y0139919D01*
X0061764Y0135919D01*
X0063128Y0135919D01*
X0065764Y0138555D01*
X0065337Y0138128D02*
X0067190Y0138128D01*
X0068189Y0137130D02*
X0064339Y0137130D01*
X0063340Y0136131D02*
X0069187Y0136131D01*
X0068615Y0134134D02*
X0063912Y0134134D01*
X0063128Y0134919D02*
X0059400Y0134919D01*
X0056764Y0132283D01*
X0056764Y0128555D01*
X0059400Y0125919D01*
X0063128Y0125919D01*
X0065764Y0128555D01*
X0065764Y0132283D01*
X0063128Y0134919D01*
X0061764Y0136131D02*
X0060764Y0136131D01*
X0060764Y0137130D02*
X0061764Y0137130D01*
X0061764Y0138128D02*
X0060764Y0138128D01*
X0060764Y0139127D02*
X0061764Y0139127D01*
X0060764Y0140125D02*
X0051764Y0140125D01*
X0051764Y0139919D02*
X0051764Y0140919D01*
X0050764Y0140919D01*
X0050764Y0144919D01*
X0049400Y0144919D01*
X0046764Y0142283D01*
X0046764Y0140919D01*
X0050764Y0140919D01*
X0050764Y0139919D01*
X0046764Y0139919D01*
X0046764Y0138555D01*
X0049400Y0135919D01*
X0050764Y0135919D01*
X0050764Y0139919D01*
X0051764Y0139919D01*
X0055764Y0139919D01*
X0055764Y0138555D01*
X0053128Y0135919D01*
X0051764Y0135919D01*
X0051764Y0139919D01*
X0051764Y0139127D02*
X0050764Y0139127D01*
X0050764Y0140125D02*
X0045764Y0140125D01*
X0045764Y0139127D02*
X0046764Y0139127D01*
X0047190Y0138128D02*
X0045337Y0138128D01*
X0045764Y0138555D02*
X0043128Y0135919D01*
X0039400Y0135919D01*
X0036764Y0138555D01*
X0036764Y0142283D01*
X0039400Y0144919D01*
X0043128Y0144919D01*
X0045764Y0142283D01*
X0045764Y0138555D01*
X0044339Y0137130D02*
X0048189Y0137130D01*
X0049187Y0136131D02*
X0043340Y0136131D01*
X0043128Y0134919D02*
X0039400Y0134919D01*
X0036764Y0132283D01*
X0036764Y0128555D01*
X0039400Y0125919D01*
X0043128Y0125919D01*
X0045764Y0128555D01*
X0045764Y0132283D01*
X0043128Y0134919D01*
X0043912Y0134134D02*
X0048615Y0134134D01*
X0049400Y0134919D02*
X0046764Y0132283D01*
X0046764Y0130919D01*
X0050764Y0130919D01*
X0050764Y0134919D01*
X0049400Y0134919D01*
X0050764Y0134134D02*
X0051764Y0134134D01*
X0051764Y0134919D02*
X0051764Y0130919D01*
X0050764Y0130919D01*
X0050764Y0129919D01*
X0046764Y0129919D01*
X0046764Y0128555D01*
X0049400Y0125919D01*
X0050764Y0125919D01*
X0050764Y0129919D01*
X0051764Y0129919D01*
X0051764Y0130919D01*
X0055764Y0130919D01*
X0055764Y0132283D01*
X0053128Y0134919D01*
X0051764Y0134919D01*
X0051764Y0136131D02*
X0050764Y0136131D01*
X0050764Y0137130D02*
X0051764Y0137130D01*
X0051764Y0138128D02*
X0050764Y0138128D01*
X0051764Y0140919D02*
X0055764Y0140919D01*
X0055764Y0142283D01*
X0053128Y0144919D01*
X0051764Y0144919D01*
X0051764Y0140919D01*
X0051764Y0141124D02*
X0050764Y0141124D01*
X0050764Y0142122D02*
X0051764Y0142122D01*
X0051764Y0143121D02*
X0050764Y0143121D01*
X0050764Y0144119D02*
X0051764Y0144119D01*
X0053927Y0144119D02*
X0058601Y0144119D01*
X0057602Y0143121D02*
X0054926Y0143121D01*
X0055764Y0142122D02*
X0056764Y0142122D01*
X0056764Y0141124D02*
X0055764Y0141124D01*
X0055764Y0139127D02*
X0056764Y0139127D01*
X0057190Y0138128D02*
X0055337Y0138128D01*
X0054339Y0137130D02*
X0058189Y0137130D01*
X0059187Y0136131D02*
X0053340Y0136131D01*
X0053912Y0134134D02*
X0058615Y0134134D01*
X0057617Y0133136D02*
X0054911Y0133136D01*
X0055764Y0132137D02*
X0056764Y0132137D01*
X0056764Y0131139D02*
X0055764Y0131139D01*
X0055764Y0129919D02*
X0051764Y0129919D01*
X0051764Y0125919D01*
X0053128Y0125919D01*
X0055764Y0128555D01*
X0055764Y0129919D01*
X0055764Y0129142D02*
X0056764Y0129142D01*
X0056764Y0130140D02*
X0051764Y0130140D01*
X0051764Y0129142D02*
X0050764Y0129142D01*
X0050764Y0130140D02*
X0045764Y0130140D01*
X0045764Y0129142D02*
X0046764Y0129142D01*
X0047175Y0128143D02*
X0045352Y0128143D01*
X0044354Y0127145D02*
X0048174Y0127145D01*
X0049172Y0126146D02*
X0043355Y0126146D01*
X0039172Y0126146D02*
X0014189Y0126146D01*
X0014189Y0125148D02*
X0067764Y0125148D01*
X0067764Y0126146D02*
X0063355Y0126146D01*
X0064354Y0127145D02*
X0067764Y0127145D01*
X0067175Y0128143D02*
X0065352Y0128143D01*
X0065764Y0129142D02*
X0066764Y0129142D01*
X0066764Y0130140D02*
X0065764Y0130140D01*
X0065764Y0131139D02*
X0066764Y0131139D01*
X0066764Y0132137D02*
X0065764Y0132137D01*
X0064911Y0133136D02*
X0067617Y0133136D01*
X0073297Y0135133D02*
X0014189Y0135133D01*
X0014189Y0136131D02*
X0039187Y0136131D01*
X0038189Y0137130D02*
X0014189Y0137130D01*
X0014189Y0138128D02*
X0037190Y0138128D01*
X0036764Y0139127D02*
X0014189Y0139127D01*
X0014189Y0140125D02*
X0036764Y0140125D01*
X0036764Y0141124D02*
X0014189Y0141124D01*
X0014189Y0142122D02*
X0036764Y0142122D01*
X0037602Y0143121D02*
X0014189Y0143121D01*
X0014189Y0144119D02*
X0038601Y0144119D01*
X0043927Y0144119D02*
X0048601Y0144119D01*
X0047602Y0143121D02*
X0044926Y0143121D01*
X0045764Y0142122D02*
X0046764Y0142122D01*
X0046764Y0141124D02*
X0045764Y0141124D01*
X0044911Y0133136D02*
X0047617Y0133136D01*
X0046764Y0132137D02*
X0045764Y0132137D01*
X0045764Y0131139D02*
X0046764Y0131139D01*
X0050764Y0131139D02*
X0051764Y0131139D01*
X0051764Y0132137D02*
X0050764Y0132137D01*
X0050764Y0133136D02*
X0051764Y0133136D01*
X0051764Y0128143D02*
X0050764Y0128143D01*
X0050764Y0127145D02*
X0051764Y0127145D01*
X0051764Y0126146D02*
X0050764Y0126146D01*
X0053355Y0126146D02*
X0059172Y0126146D01*
X0058174Y0127145D02*
X0054354Y0127145D01*
X0055352Y0128143D02*
X0057175Y0128143D01*
X0066444Y0120155D02*
X0014189Y0120155D01*
X0014189Y0119157D02*
X0065755Y0119157D01*
X0065441Y0118158D02*
X0014189Y0118158D01*
X0014189Y0117159D02*
X0065441Y0117159D01*
X0065441Y0116161D02*
X0014189Y0116161D01*
X0014189Y0115162D02*
X0065441Y0115162D01*
X0065441Y0114164D02*
X0014189Y0114164D01*
X0014189Y0113165D02*
X0036102Y0113165D01*
X0033972Y0112167D02*
X0014189Y0112167D01*
X0014189Y0111168D02*
X0032974Y0111168D01*
X0031975Y0110170D02*
X0014189Y0110170D01*
X0014189Y0109171D02*
X0030977Y0109171D01*
X0029978Y0108173D02*
X0014189Y0108173D01*
X0014189Y0107174D02*
X0029436Y0107174D01*
X0029436Y0106176D02*
X0014189Y0106176D01*
X0014189Y0105177D02*
X0029436Y0105177D01*
X0029436Y0104179D02*
X0014189Y0104179D01*
X0014189Y0103180D02*
X0014204Y0103180D01*
X0018796Y0103180D02*
X0024204Y0103180D01*
X0023206Y0102182D02*
X0019794Y0102182D01*
X0020793Y0101183D02*
X0022207Y0101183D01*
X0022200Y0100185D02*
X0020800Y0100185D01*
X0020800Y0099186D02*
X0022200Y0099186D01*
X0022200Y0098188D02*
X0020800Y0098188D01*
X0020375Y0097189D02*
X0022625Y0097189D01*
X0023623Y0096191D02*
X0019377Y0096191D01*
X0018378Y0095192D02*
X0024622Y0095192D01*
X0024219Y0093195D02*
X0018781Y0093195D01*
X0019779Y0092197D02*
X0023221Y0092197D01*
X0022222Y0091198D02*
X0020778Y0091198D01*
X0020800Y0090200D02*
X0022200Y0090200D01*
X0026100Y0090200D02*
X0026900Y0090200D01*
X0026900Y0091198D02*
X0026100Y0091198D01*
X0026100Y0092197D02*
X0026900Y0092197D01*
X0026900Y0093195D02*
X0026100Y0093195D01*
X0028378Y0095192D02*
X0029436Y0095192D01*
X0029436Y0094194D02*
X0014189Y0094194D01*
X0014189Y0095192D02*
X0014622Y0095192D01*
X0014219Y0093195D02*
X0014189Y0093195D01*
X0028781Y0093195D02*
X0029436Y0093195D01*
X0029377Y0096191D02*
X0029436Y0096191D01*
X0029436Y0103180D02*
X0028796Y0103180D01*
X0041584Y0093195D02*
X0062913Y0093195D01*
X0062913Y0092197D02*
X0040586Y0092197D01*
X0039587Y0091198D02*
X0054590Y0091198D01*
X0056126Y0091198D02*
X0062913Y0091198D01*
X0062913Y0091127D02*
X0063016Y0090745D01*
X0063213Y0090403D01*
X0063492Y0090124D01*
X0063834Y0089926D01*
X0064216Y0089824D01*
X0067063Y0089824D01*
X0067063Y0094367D01*
X0062913Y0094367D01*
X0062913Y0091127D01*
X0063416Y0090200D02*
X0057699Y0090200D01*
X0058275Y0089201D02*
X0069803Y0089201D01*
X0069803Y0088203D02*
X0058446Y0088203D01*
X0057720Y0085812D02*
X0065988Y0085812D01*
X0069138Y0082663D01*
X0082130Y0082663D01*
X0089610Y0090143D01*
X0089610Y0098411D01*
X0070775Y0100185D02*
X0069295Y0100185D01*
X0068063Y0099186D02*
X0067063Y0099186D01*
X0067063Y0099911D02*
X0064216Y0099911D01*
X0063834Y0099808D01*
X0063492Y0099611D01*
X0063213Y0099332D01*
X0063016Y0098990D01*
X0062913Y0098608D01*
X0062913Y0095367D01*
X0067063Y0095367D01*
X0067063Y0099911D01*
X0067405Y0100185D02*
X0060651Y0100185D01*
X0061071Y0101183D02*
X0065936Y0101183D01*
X0065403Y0102182D02*
X0061071Y0102182D01*
X0063129Y0099186D02*
X0049575Y0099186D01*
X0049575Y0098188D02*
X0062913Y0098188D01*
X0062913Y0097189D02*
X0049565Y0097189D01*
X0049575Y0100185D02*
X0051483Y0100185D01*
X0051063Y0101183D02*
X0050557Y0101183D01*
X0056067Y0101183D02*
X0056067Y0101183D01*
X0056067Y0100185D02*
X0056067Y0100185D01*
X0062913Y0096191D02*
X0044580Y0096191D01*
X0043581Y0095192D02*
X0067063Y0095192D01*
X0067063Y0094194D02*
X0068063Y0094194D01*
X0068063Y0093195D02*
X0067063Y0093195D01*
X0067063Y0092197D02*
X0068063Y0092197D01*
X0068063Y0091198D02*
X0067063Y0091198D01*
X0067063Y0090200D02*
X0068063Y0090200D01*
X0067425Y0087204D02*
X0069803Y0087204D01*
X0069803Y0086206D02*
X0068423Y0086206D01*
X0069422Y0085207D02*
X0069803Y0085207D01*
X0066760Y0082212D02*
X0039548Y0082212D01*
X0039548Y0083210D02*
X0065762Y0083210D01*
X0067759Y0081213D02*
X0039548Y0081213D01*
X0039548Y0084209D02*
X0056496Y0084209D01*
X0057720Y0085812D02*
X0055358Y0088175D01*
X0053017Y0090200D02*
X0039548Y0090200D01*
X0039548Y0089201D02*
X0052442Y0089201D01*
X0052271Y0088203D02*
X0039548Y0088203D01*
X0039548Y0087204D02*
X0052418Y0087204D01*
X0052961Y0086206D02*
X0039548Y0086206D01*
X0039548Y0085207D02*
X0054454Y0085207D01*
X0062913Y0094194D02*
X0042583Y0094194D01*
X0029436Y0086206D02*
X0029392Y0086206D01*
X0029436Y0083210D02*
X0028766Y0083210D01*
X0061071Y0107174D02*
X0061899Y0107174D01*
X0061707Y0108173D02*
X0061071Y0108173D01*
X0061071Y0109171D02*
X0061832Y0109171D01*
X0062340Y0110170D02*
X0061071Y0110170D01*
X0061071Y0111168D02*
X0063338Y0111168D01*
X0064337Y0112167D02*
X0050760Y0112167D01*
X0043119Y0113165D02*
X0065292Y0113165D01*
X0067443Y0121154D02*
X0014189Y0121154D01*
X0014189Y0122152D02*
X0067932Y0122152D01*
X0067764Y0123151D02*
X0014189Y0123151D01*
X0014189Y0124149D02*
X0067764Y0124149D01*
X0073912Y0134134D02*
X0073924Y0134134D01*
X0078524Y0134134D02*
X0078615Y0134134D01*
X0066764Y0141124D02*
X0065764Y0141124D01*
X0065764Y0142122D02*
X0066764Y0142122D01*
X0067602Y0143121D02*
X0064926Y0143121D01*
X0038615Y0134134D02*
X0014189Y0134134D01*
X0014189Y0133136D02*
X0037617Y0133136D01*
X0036764Y0132137D02*
X0014189Y0132137D01*
X0014189Y0131139D02*
X0036764Y0131139D01*
X0036764Y0130140D02*
X0014189Y0130140D01*
X0014189Y0129142D02*
X0036764Y0129142D01*
X0037175Y0128143D02*
X0014189Y0128143D01*
X0014189Y0127145D02*
X0038174Y0127145D01*
X0014189Y0151109D02*
X0208617Y0151109D01*
X0209151Y0152107D02*
X0014189Y0152107D01*
X0014189Y0153106D02*
X0209728Y0153106D01*
X0210510Y0154104D02*
X0014189Y0154104D01*
X0070765Y0101183D02*
X0070775Y0101183D01*
X0068063Y0098188D02*
X0067063Y0098188D01*
X0067063Y0097189D02*
X0068063Y0097189D01*
X0068063Y0096191D02*
X0067063Y0096191D01*
X0105609Y0117159D02*
X0204981Y0117159D01*
X0205200Y0116161D02*
X0106607Y0116161D01*
X0149453Y0040274D02*
X0157327Y0040274D01*
X0157327Y0039276D02*
X0149453Y0039276D01*
X0149453Y0038277D02*
X0157327Y0038277D01*
X0157327Y0037279D02*
X0149453Y0037279D01*
X0149453Y0036280D02*
X0157327Y0036280D01*
X0157327Y0035282D02*
X0149453Y0035282D01*
X0149453Y0034283D02*
X0157327Y0034283D01*
X0157327Y0033285D02*
X0149453Y0033285D01*
X0149453Y0032286D02*
X0157327Y0032286D01*
X0157327Y0031288D02*
X0149453Y0031288D01*
X0149453Y0030289D02*
X0157327Y0030289D01*
X0157327Y0029291D02*
X0149453Y0029291D01*
X0149453Y0028292D02*
X0157327Y0028292D01*
X0157076Y0027293D02*
X0149704Y0027293D01*
X0150702Y0026295D02*
X0156077Y0026295D01*
X0155079Y0025296D02*
X0151701Y0025296D01*
X0169743Y0025296D02*
X0170343Y0025296D01*
X0170343Y0026295D02*
X0169743Y0026295D01*
X0169743Y0027293D02*
X0170343Y0027293D01*
X0170343Y0028292D02*
X0169743Y0028292D01*
X0172019Y0025296D02*
X0178068Y0025296D01*
X0177069Y0026295D02*
X0173017Y0026295D01*
X0174016Y0027293D02*
X0176071Y0027293D01*
X0175943Y0028292D02*
X0174143Y0028292D01*
X0221844Y0119157D02*
X0225661Y0119157D01*
X0225661Y0120155D02*
X0221423Y0120155D01*
X0220688Y0121154D02*
X0225661Y0121154D01*
X0225661Y0122152D02*
X0219368Y0122152D01*
X0220861Y0137130D02*
X0225661Y0137130D01*
X0225661Y0138128D02*
X0223397Y0138128D01*
X0224963Y0139127D02*
X0225661Y0139127D01*
D29*
X0072878Y0121639D02*
X0068941Y0117702D01*
X0068941Y0115734D01*
X0068941Y0111993D01*
X0068350Y0111403D01*
X0072878Y0121639D02*
X0071264Y0123253D01*
X0071264Y0130419D01*
D30*
X0068350Y0111403D02*
X0067957Y0111403D01*
X0064807Y0108253D01*
M02*
